<svg width="37" height="37" viewBox="0 0 37 37" fill="none" xmlns="http://www.w3.org/2000/svg">
<g id="icon-email">
<g id="Group">
<g id="Group_2">
<path id="Vector" d="M29.1562 20.7891V8.67969C29.1562 6.67655 27.5266 5.04688 25.5234 5.04688H6.63281C4.62968 5.04688 3 6.67655 3 8.67969V20.7891C3 22.7922 4.62968 24.4219 6.63281 24.4219H25.5234C27.5265 24.4219 29.1562 22.7922 29.1562 20.7891ZM6.63281 7.46875H25.5234C25.9873 7.46875 26.3905 7.73116 26.5938 8.11509L16.7228 14.5489C16.5305 14.6703 16.3077 14.7344 16.0781 14.7344C15.8485 14.7344 15.6257 14.6703 15.4335 14.5489L5.5624 8.11509C5.76572 7.73116 6.16896 7.46875 6.63281 7.46875ZM5.42188 20.7891V10.9144L14.1277 16.5886C14.7105 16.96 15.3849 17.1562 16.0781 17.1562C16.7713 17.1562 17.4457 16.96 18.0285 16.5887L26.7344 10.9144V20.7891C26.7344 21.4568 26.1911 22 25.5234 22H6.63281C5.9651 22 5.42188 21.4568 5.42188 20.7891ZM31.5781 9.89062V25.6328C31.5781 26.3005 31.0349 26.8438 30.3672 26.8438H7.84375V29.2656H30.3672C32.3703 29.2656 34 27.6359 34 25.6328V9.89062H31.5781Z" fill="white"/>
</g>
</g>
</g>
</svg>
