<svg width="35" height="35" viewBox="0 0 35 35" fill="none" xmlns="http://www.w3.org/2000/svg">
<g id="icon">
<path id="Vector" fill-rule="evenodd" clip-rule="evenodd" d="M7.07984 16.4062H7.65625C8.23594 16.4062 8.79266 16.637 9.20281 17.0472C9.61297 17.4573 9.84375 18.0141 9.84375 18.5938V25.8377C9.84375 26.4173 9.61297 26.9741 9.20281 27.3842C8.79266 27.7944 8.23594 28.0252 7.65625 28.0252H5.46875C3.65641 28.0252 2.1875 26.5562 2.1875 24.7439V19.6875C2.1875 18.0688 3.35891 16.7245 4.9 16.4555C4.90547 14.4889 5.26859 10.3873 7.88266 6.98906C10.6564 3.38406 14.2953 2.1875 17.5 2.1875C20.7047 2.1875 24.3162 3.34797 27.1173 6.98906C29.7511 10.4136 30.1197 14.502 30.1263 16.4598C31.6542 16.7398 32.8125 18.0786 32.8125 19.6875V24.7439C32.8125 26.5562 31.3436 28.0252 29.5312 28.0252V29.4558C29.5312 31.3097 28.0284 32.8125 26.1745 32.8125H17.5C16.8962 32.8125 16.4062 32.3225 16.4062 31.7188C16.4062 31.115 16.8962 30.625 17.5 30.625H26.1745C26.8198 30.625 27.3438 30.1011 27.3438 29.4558V28.0252C26.7641 28.0252 26.2073 27.7944 25.7972 27.3842C25.387 26.9741 25.1562 26.4173 25.1562 25.8377V18.5938C25.1562 18.0141 25.387 17.4573 25.7972 17.0472C26.2073 16.637 26.7641 16.4062 27.3438 16.4062H27.9453C27.942 14.7416 27.6325 11.2481 25.3827 8.32344C23.0858 5.33641 20.1283 4.375 17.5 4.375C14.8717 4.375 11.8923 5.36594 9.61734 8.32344C7.38281 11.2273 7.08094 14.7361 7.07984 16.4062ZM27.3438 18.5938V25.8377H29.5312C30.135 25.8377 30.625 25.3477 30.625 24.7439V19.6875C30.625 19.0837 30.135 18.5938 29.5312 18.5938H27.3438ZM7.65625 25.8377V18.5938H5.46875C4.865 18.5938 4.375 19.0837 4.375 19.6875V24.7439C4.375 25.3477 4.865 25.8377 5.46875 25.8377H7.65625ZM13.125 22.9688V20.0845C11.6517 18.8398 10.7155 16.9783 10.7155 14.9002C10.7155 11.1552 13.7561 8.11562 17.5 8.11562C21.2439 8.11562 24.2845 11.1552 24.2845 14.9002C24.2845 17.8686 22.3727 20.3952 19.7148 21.3139C19.3594 21.4364 14.7361 23.9323 14.7361 23.9323C14.397 24.1139 13.988 24.1052 13.6577 23.9072C13.3273 23.7103 13.125 23.3538 13.125 22.9688ZM15.3125 21.1488C16.7847 20.3689 18.7666 19.3266 18.9995 19.2467C20.802 18.6233 22.097 16.9116 22.097 14.9002C22.097 12.3627 20.0375 10.3031 17.5 10.3031C14.9625 10.3031 12.903 12.3627 12.903 14.9002C12.903 16.4511 13.673 17.8227 14.8509 18.6561C15.1397 18.8606 15.3125 19.1931 15.3125 19.5486V21.1488Z" fill="#343A40"/>
</g>
</svg>
