<svg width="35" height="35" viewBox="0 0 35 35" fill="none" xmlns="http://www.w3.org/2000/svg">
<g id="icon">
<path id="Vector" d="M23.5502 8.52939L23.5481 8.52822C23.1418 8.30233 22.9959 7.78899 23.2227 7.38229C23.2227 7.38223 23.2228 7.38217 23.2228 7.38212L25.0321 4.13376C25.0322 4.13345 25.0324 4.13314 25.0326 4.13283C25.2579 3.72395 25.7733 3.58086 26.1778 3.8072C26.5835 4.03306 26.7296 4.54499 26.5028 4.95181C26.5028 4.95187 26.5027 4.95192 26.5027 4.95198L24.6928 8.20141L23.5502 8.52939ZM23.5502 8.52939C23.6768 8.59843 23.816 8.63427 23.9571 8.63427C24.251 8.63427 24.5389 8.47848 24.6926 8.20183L23.5502 8.52939ZM31.2287 9.60435L31.2285 9.60384C31.0398 9.17763 30.5451 8.98889 30.1216 9.17134L30.1194 9.1723L26.8698 10.6032C26.8697 10.6033 26.8696 10.6033 26.8695 10.6034C26.8695 10.6034 26.8695 10.6034 26.8695 10.6034C26.4439 10.7904 26.2503 11.288 26.4374 11.7128L26.4375 11.713C26.577 12.0291 26.8854 12.2158 27.2081 12.2158C27.322 12.2158 27.4371 12.1921 27.5445 12.1458L27.5468 12.1449L30.7963 10.7139C30.7964 10.7139 30.7965 10.7138 30.7966 10.7138C30.7967 10.7138 30.7967 10.7138 30.7967 10.7138C31.2223 10.5268 31.4158 10.0291 31.2287 9.60435ZM12.7761 7.38212L10.9675 4.13292C10.9674 4.13281 10.9673 4.13269 10.9673 4.13257C10.7406 3.72369 10.2267 3.58227 9.82258 3.80697C9.41659 4.0327 9.2703 4.54485 9.4972 4.95181C9.49721 4.95183 9.49722 4.95186 9.49724 4.95188C9.49726 4.95191 9.49727 4.95195 9.49729 4.95198L11.3064 8.20007L11.3061 8.20032C11.4597 8.47724 11.7478 8.63319 12.0418 8.63319C12.183 8.63319 12.3221 8.59734 12.4487 8.5283L12.4487 8.52831L12.4508 8.52713C12.8568 8.3014 13.0031 7.7893 12.7763 7.38235C12.7762 7.38233 12.7762 7.3823 12.7762 7.38227C12.7762 7.38222 12.7762 7.38217 12.7761 7.38212ZM5.88062 9.1723L5.88062 9.17229L5.87829 9.17129C5.45866 8.99073 4.9606 9.17496 4.77132 9.60424L4.77127 9.60435C4.58416 10.0292 4.77777 10.5269 5.20343 10.7138C5.20352 10.7138 5.20361 10.7139 5.20369 10.7139L8.45325 12.1449L8.45324 12.1449L8.45546 12.1458C8.56293 12.1921 8.67803 12.2158 8.79189 12.2158C9.11465 12.2158 9.42297 12.0291 9.56249 11.713L9.56259 11.7128C9.74969 11.288 9.55613 10.7904 9.13054 10.6034C9.13053 10.6034 9.13052 10.6034 9.13051 10.6034C9.1304 10.6033 9.13028 10.6033 9.13017 10.6032L5.88062 9.1723ZM12.7992 24.2999L12.7997 24.3002C13.1574 24.5545 13.3668 24.9586 13.3668 25.3763V26.6026C13.3668 28.6612 14.9154 30.3 16.9167 30.3H19.0833C21.0408 30.3 22.6332 28.7075 22.6332 26.75V25.3774C22.6332 24.9572 22.8406 24.5558 23.1917 24.3057C25.5554 22.6256 26.9665 19.8944 26.9665 16.9988C26.9665 14.451 25.8771 12.0168 23.9796 10.3165L23.9795 10.3164C22.0543 8.59395 19.5644 7.80255 16.9812 8.08917C13.0045 8.5288 9.70642 11.7088 9.13093 15.6588L9.13092 15.6589C8.64147 19.0246 10.0464 22.3361 12.7992 24.2999ZM10.7971 15.9013L10.7972 15.9012C11.2617 12.7025 13.9421 10.118 17.165 9.7624C17.4502 9.73106 17.7317 9.71545 18.0108 9.71545C19.8079 9.71545 21.5025 10.3588 22.8568 11.5706C24.3987 12.9513 25.2831 14.9305 25.2831 16.9988C25.2831 19.3499 24.1376 21.5685 22.2158 22.9336L22.2156 22.9338C21.7323 23.2778 21.3818 23.7533 21.1743 24.2822H18.8417V19.3449C20.0922 18.9804 21.0083 17.8254 21.0083 16.4572C21.0083 15.9925 20.6313 15.6155 20.1666 15.6155C19.7019 15.6155 19.325 15.9925 19.325 16.4572C19.325 17.1874 18.7302 17.7822 18 17.7822C17.2698 17.7822 16.675 17.1874 16.675 16.4572C16.675 15.9925 16.2981 15.6155 15.8334 15.6155C15.3687 15.6155 14.9917 15.9925 14.9917 16.4572C14.9917 17.8243 15.9077 18.9803 17.1583 19.3449V24.2822H14.8243C14.6152 23.7516 14.2616 23.2751 13.776 22.9286L13.7759 22.9285C11.5404 21.3348 10.3983 18.6425 10.7971 15.9013ZM15.0501 25.9656H20.9499V26.7489C20.9499 27.7781 20.1125 28.6156 19.0833 28.6156H16.9167C15.8647 28.6156 15.0501 27.7743 15.0501 26.6016V25.9656Z" fill="#343A40" stroke="#343A40" stroke-width="0.6"/>
</g>
</svg>
