<svg width="22" height="22" viewBox="0 0 22 22" fill="none" xmlns="http://www.w3.org/2000/svg">
<path id="Vector" d="M20.3502 1.65003C18.1502 -0.54997 14.7402 -0.43997 12.5402 1.65003L11.7702 2.42003L10.1202 0.88003C9.68021 0.44003 9.02021 0.44003 8.58021 0.88003L4.73021 4.73003C4.29021 5.17003 4.29021 5.83003 4.73021 6.27003C5.17021 6.71003 5.83021 6.71003 6.27021 6.27003L9.35021 3.19003L10.2302 4.07003L1.54021 12.76C1.32021 12.98 1.21021 13.09 1.21021 13.42L0.110207 20.79C0.000207283 21.34 0.550207 22 1.32021 21.89L8.69021 20.79C8.91021 20.79 9.13021 20.68 9.35021 20.46L20.3502 9.46003C22.4402 7.26003 22.4402 3.85003 20.3502 1.65003ZM18.8102 3.19003C19.8002 4.18003 20.0202 5.72003 19.4702 6.93003L15.0702 2.53003C16.2802 1.98003 17.7102 2.20003 18.8102 3.19003ZM8.91021 17.82L7.37021 16.28L16.5002 7.15003L18.0402 8.69003L8.91021 17.82ZM4.18021 13.09L13.3102 3.96003L14.8502 5.50003L5.72021 14.63L4.18021 13.09ZM3.08021 15.18L6.82021 18.92L2.42021 19.58L3.08021 15.18Z" fill="#343A40"/>
</svg>
