<svg width="1920" height="760" viewBox="0 0 1920 760" fill="none" xmlns="http://www.w3.org/2000/svg">
<g clip-path="url(#clip0_1045_8720)">
<rect width="1920" height="760" fill="#F8F9FB"/>
<path opacity="0.15" d="M1560.09 688H1961L1914.91 760H1514L1560.09 688Z" fill="#0C2959"/>
<path opacity="0.12" d="M1616.09 600H2017L1976.91 662H1576L1616.09 600Z" fill="#0C2959"/>
<path opacity="0.1" d="M1670.09 514H2071L2030.91 577H1630L1670.09 514Z" fill="#0C2959"/>
<path opacity="0.08" d="M1723.09 431H2124L2083.91 494H1683L1723.09 431Z" fill="#0C2959"/>
<path opacity="0.06" d="M1777.09 348H2178L2137.91 410H1737L1777.09 348Z" fill="#0C2959"/>
<path opacity="0.03" d="M1830.09 263H2231L2190.91 325H1790L1830.09 263Z" fill="#0C2959"/>
<path d="M887.535 702H899.415L892.935 734.58H912.975L911.055 744H879.135L887.535 702ZM950.679 725.22C950.679 726.78 950.459 728.56 950.019 730.56H926.139C926.539 734.08 928.999 735.84 933.519 735.84C934.959 735.84 936.359 735.62 937.719 735.18C939.079 734.74 940.299 734.08 941.379 733.2L946.119 740.34C942.319 743.14 937.699 744.54 932.259 744.54C928.819 744.54 925.779 743.94 923.139 742.74C920.539 741.5 918.519 739.78 917.079 737.58C915.679 735.34 914.979 732.72 914.979 729.72C914.979 726.16 915.799 722.96 917.439 720.12C919.119 717.24 921.439 715 924.399 713.4C927.399 711.76 930.819 710.94 934.659 710.94C937.899 710.94 940.719 711.54 943.119 712.74C945.559 713.9 947.419 715.56 948.699 717.72C950.019 719.88 950.679 722.38 950.679 725.22ZM934.119 719.04C932.279 719.04 930.739 719.54 929.499 720.54C928.259 721.5 927.359 722.84 926.799 724.56H940.179C940.219 722.84 939.679 721.5 938.559 720.54C937.439 719.54 935.959 719.04 934.119 719.04ZM991.821 711.48L985.341 744H974.541L975.201 740.94C972.601 743.34 969.461 744.54 965.781 744.54C963.381 744.54 961.121 743.96 959.001 742.8C956.921 741.6 955.241 739.88 953.961 737.64C952.681 735.4 952.041 732.76 952.041 729.72C952.041 726.2 952.821 723.02 954.381 720.18C955.981 717.3 958.121 715.04 960.801 713.4C963.521 711.76 966.481 710.94 969.681 710.94C974.401 710.94 977.721 712.42 979.641 715.38L980.421 711.48H991.821ZM969.741 735.36C972.021 735.36 973.881 734.52 975.321 732.84C976.761 731.16 977.481 728.98 977.481 726.3C977.481 724.38 976.921 722.86 975.801 721.74C974.721 720.62 973.221 720.06 971.301 720.06C969.021 720.06 967.161 720.9 965.721 722.58C964.281 724.26 963.561 726.46 963.561 729.18C963.561 731.1 964.101 732.62 965.181 733.74C966.301 734.82 967.821 735.36 969.741 735.36ZM1034.92 699.48L1026.04 744H1015.24L1015.9 740.82C1013.3 743.3 1010.16 744.54 1006.48 744.54C1004.08 744.54 1001.82 743.96 999.7 742.8C997.62 741.6 995.94 739.88 994.66 737.64C993.38 735.4 992.74 732.76 992.74 729.72C992.74 726.2 993.52 723.02 995.08 720.18C996.68 717.3 998.84 715.04 1001.56 713.4C1004.28 711.76 1007.24 710.94 1010.44 710.94C1015.08 710.94 1018.38 712.38 1020.34 715.26L1023.52 699.48H1034.92ZM1010.44 735.36C1012.72 735.36 1014.58 734.52 1016.02 732.84C1017.46 731.16 1018.18 728.98 1018.18 726.3C1018.18 724.38 1017.64 722.86 1016.56 721.74C1015.48 720.62 1013.98 720.06 1012.06 720.06C1009.78 720.06 1007.92 720.9 1006.48 722.58C1005.04 724.26 1004.32 726.46 1004.32 729.18C1004.32 731.1 1004.86 732.62 1005.94 733.74C1007.02 734.82 1008.52 735.36 1010.44 735.36ZM1038.65 711.48H1049.99L1043.51 744H1032.17L1038.65 711.48ZM1045.91 707.88C1043.95 707.88 1042.37 707.34 1041.17 706.26C1039.97 705.18 1039.37 703.84 1039.37 702.24C1039.37 700.36 1040.03 698.82 1041.35 697.62C1042.71 696.38 1044.49 695.76 1046.69 695.76C1048.69 695.76 1050.29 696.28 1051.49 697.32C1052.69 698.32 1053.29 699.62 1053.29 701.22C1053.29 703.18 1052.61 704.78 1051.25 706.02C1049.89 707.26 1048.11 707.88 1045.91 707.88ZM1076.49 710.94C1080.05 710.94 1082.89 711.9 1085.01 713.82C1087.17 715.7 1088.25 718.42 1088.25 721.98C1088.25 723.3 1088.11 724.64 1087.83 726L1084.23 744H1072.83L1076.19 727.08C1076.35 726.4 1076.43 725.68 1076.43 724.92C1076.43 722.04 1074.93 720.6 1071.93 720.6C1069.93 720.6 1068.29 721.22 1067.01 722.46C1065.73 723.66 1064.83 725.48 1064.31 727.92L1061.07 744H1049.67L1056.15 711.48H1066.95L1066.29 714.84C1067.69 713.52 1069.27 712.54 1071.03 711.9C1072.79 711.26 1074.61 710.94 1076.49 710.94ZM1132.17 711.48L1126.89 738C1125.65 744.28 1123.23 748.88 1119.63 751.8C1116.03 754.72 1111.29 756.18 1105.41 756.18C1098.85 756.18 1093.57 754.78 1089.57 751.98L1094.67 744.06C1095.99 745.1 1097.63 745.92 1099.59 746.52C1101.55 747.12 1103.59 747.42 1105.71 747.42C1108.55 747.42 1110.69 746.8 1112.13 745.56C1113.61 744.36 1114.59 742.54 1115.07 740.1L1115.31 739.02C1112.87 741.22 1109.85 742.32 1106.25 742.32C1103.65 742.32 1101.27 741.76 1099.11 740.64C1096.95 739.52 1095.23 737.92 1093.95 735.84C1092.67 733.72 1092.03 731.26 1092.03 728.46C1092.03 725.26 1092.81 722.32 1094.37 719.64C1095.93 716.96 1098.07 714.84 1100.79 713.28C1103.51 711.72 1106.53 710.94 1109.85 710.94C1112.33 710.94 1114.47 711.4 1116.27 712.32C1118.11 713.24 1119.45 714.68 1120.29 716.64L1121.31 711.48H1132.17ZM1109.61 733.2C1111.89 733.2 1113.73 732.48 1115.13 731.04C1116.57 729.6 1117.29 727.72 1117.29 725.4C1117.29 723.8 1116.75 722.52 1115.67 721.56C1114.59 720.56 1113.11 720.06 1111.23 720.06C1108.95 720.06 1107.09 720.8 1105.65 722.28C1104.21 723.72 1103.49 725.6 1103.49 727.92C1103.49 729.52 1104.03 730.8 1105.11 731.76C1106.19 732.72 1107.69 733.2 1109.61 733.2ZM1188.82 711.48L1168 745.44C1166.28 748.2 1164.62 750.34 1163.02 751.86C1161.46 753.42 1159.8 754.52 1158.04 755.16C1156.28 755.84 1154.22 756.18 1151.86 756.18C1150.14 756.18 1148.44 755.92 1146.76 755.4C1145.04 754.88 1143.68 754.2 1142.68 753.36L1147.78 745.32C1149.22 746.56 1150.9 747.18 1152.82 747.18C1153.86 747.18 1154.74 746.94 1155.46 746.46C1156.18 746.02 1156.9 745.28 1157.62 744.24L1150.24 711.48H1161.58L1165.66 731.46L1177.66 711.48H1188.82ZM1201.27 744.54C1197.83 744.54 1194.83 743.94 1192.27 742.74C1189.71 741.5 1187.73 739.76 1186.33 737.52C1184.93 735.28 1184.23 732.68 1184.23 729.72C1184.23 726.16 1185.09 722.96 1186.81 720.12C1188.53 717.28 1190.91 715.04 1193.95 713.4C1196.99 711.76 1200.41 710.94 1204.21 710.94C1207.65 710.94 1210.65 711.56 1213.21 712.8C1215.77 714 1217.75 715.72 1219.15 717.96C1220.55 720.16 1221.25 722.74 1221.25 725.7C1221.25 729.26 1220.39 732.48 1218.67 735.36C1216.95 738.2 1214.57 740.44 1211.53 742.08C1208.53 743.72 1205.11 744.54 1201.27 744.54ZM1201.93 735.36C1204.21 735.36 1206.07 734.52 1207.51 732.84C1208.95 731.16 1209.67 728.98 1209.67 726.3C1209.67 724.38 1209.13 722.86 1208.05 721.74C1206.97 720.62 1205.47 720.06 1203.55 720.06C1201.27 720.06 1199.41 720.9 1197.97 722.58C1196.53 724.26 1195.81 726.46 1195.81 729.18C1195.81 731.1 1196.35 732.62 1197.43 733.74C1198.51 734.82 1200.01 735.36 1201.93 735.36ZM1262.59 711.48L1256.11 744H1245.31L1245.97 740.64C1244.57 741.96 1242.99 742.94 1241.23 743.58C1239.51 744.22 1237.73 744.54 1235.89 744.54C1232.33 744.54 1229.49 743.58 1227.37 741.66C1225.29 739.74 1224.25 737 1224.25 733.44C1224.25 732.12 1224.39 730.78 1224.67 729.42L1228.27 711.48H1239.67L1236.31 728.34C1236.15 729.1 1236.07 729.84 1236.07 730.56C1236.07 733.4 1237.53 734.82 1240.45 734.82C1242.41 734.82 1244.03 734.22 1245.31 733.02C1246.59 731.78 1247.47 729.96 1247.95 727.56L1251.19 711.48H1262.59ZM1278.81 715.08C1281.53 712.32 1285.45 710.94 1290.57 710.94L1288.59 721.2C1287.59 721.08 1286.73 721.02 1286.01 721.02C1283.45 721.02 1281.39 721.64 1279.83 722.88C1278.31 724.08 1277.29 726 1276.77 728.64L1273.65 744H1262.25L1268.73 711.48H1279.53L1278.81 715.08ZM1344.65 711.48L1324.79 744H1312.97L1306.07 711.48H1317.35L1321.31 731.4L1333.37 711.48H1344.65ZM1346.4 711.48H1357.74L1351.26 744H1339.92L1346.4 711.48ZM1353.66 707.88C1351.7 707.88 1350.12 707.34 1348.92 706.26C1347.72 705.18 1347.12 703.84 1347.12 702.24C1347.12 700.36 1347.78 698.82 1349.1 697.62C1350.46 696.38 1352.24 695.76 1354.44 695.76C1356.44 695.76 1358.04 696.28 1359.24 697.32C1360.44 698.32 1361.04 699.62 1361.04 701.22C1361.04 703.18 1360.36 704.78 1359 706.02C1357.64 707.26 1355.86 707.88 1353.66 707.88ZM1370.13 744.54C1367.33 744.54 1364.63 744.24 1362.03 743.64C1359.47 743.04 1357.47 742.28 1356.03 741.36L1360.17 733.38C1361.65 734.3 1363.41 735.04 1365.45 735.6C1367.49 736.12 1369.49 736.38 1371.45 736.38C1374.93 736.38 1376.67 735.6 1376.67 734.04C1376.67 733.4 1376.25 732.94 1375.41 732.66C1374.61 732.34 1373.31 732.04 1371.51 731.76C1369.11 731.32 1367.13 730.86 1365.57 730.38C1364.05 729.86 1362.71 729 1361.55 727.8C1360.39 726.6 1359.81 724.92 1359.81 722.76C1359.81 719 1361.41 716.1 1364.61 714.06C1367.85 711.98 1372.03 710.94 1377.15 710.94C1379.47 710.94 1381.71 711.18 1383.87 711.66C1386.03 712.1 1387.91 712.72 1389.51 713.52L1385.49 721.5C1382.77 719.86 1379.55 719.04 1375.83 719.04C1374.07 719.04 1372.75 719.28 1371.87 719.76C1371.03 720.2 1370.61 720.78 1370.61 721.5C1370.61 722.14 1371.01 722.62 1371.81 722.94C1372.65 723.22 1374.01 723.54 1375.89 723.9C1378.21 724.3 1380.13 724.76 1381.65 725.28C1383.21 725.8 1384.55 726.66 1385.67 727.86C1386.83 729.06 1387.41 730.7 1387.41 732.78C1387.41 736.54 1385.79 739.44 1382.55 741.48C1379.31 743.52 1375.17 744.54 1370.13 744.54ZM1395.5 711.48H1406.84L1400.36 744H1389.02L1395.5 711.48ZM1402.76 707.88C1400.8 707.88 1399.22 707.34 1398.02 706.26C1396.82 705.18 1396.22 703.84 1396.22 702.24C1396.22 700.36 1396.88 698.82 1398.2 697.62C1399.56 696.38 1401.34 695.76 1403.54 695.76C1405.54 695.76 1407.14 696.28 1408.34 697.32C1409.54 698.32 1410.14 699.62 1410.14 701.22C1410.14 703.18 1409.46 704.78 1408.1 706.02C1406.74 707.26 1404.96 707.88 1402.76 707.88ZM1424.58 744.54C1421.14 744.54 1418.14 743.94 1415.58 742.74C1413.02 741.5 1411.04 739.76 1409.64 737.52C1408.24 735.28 1407.54 732.68 1407.54 729.72C1407.54 726.16 1408.4 722.96 1410.12 720.12C1411.84 717.28 1414.22 715.04 1417.26 713.4C1420.3 711.76 1423.72 710.94 1427.52 710.94C1430.96 710.94 1433.96 711.56 1436.52 712.8C1439.08 714 1441.06 715.72 1442.46 717.96C1443.86 720.16 1444.56 722.74 1444.56 725.7C1444.56 729.26 1443.7 732.48 1441.98 735.36C1440.26 738.2 1437.88 740.44 1434.84 742.08C1431.84 743.72 1428.42 744.54 1424.58 744.54ZM1425.24 735.36C1427.52 735.36 1429.38 734.52 1430.82 732.84C1432.26 731.16 1432.98 728.98 1432.98 726.3C1432.98 724.38 1432.44 722.86 1431.36 721.74C1430.28 720.62 1428.78 720.06 1426.86 720.06C1424.58 720.06 1422.72 720.9 1421.28 722.58C1419.84 724.26 1419.12 726.46 1419.12 729.18C1419.12 731.1 1419.66 732.62 1420.74 733.74C1421.82 734.82 1423.32 735.36 1425.24 735.36ZM1472.04 710.94C1475.6 710.94 1478.44 711.9 1480.56 713.82C1482.72 715.7 1483.8 718.42 1483.8 721.98C1483.8 723.3 1483.66 724.64 1483.38 726L1479.78 744H1468.38L1471.74 727.08C1471.9 726.4 1471.98 725.68 1471.98 724.92C1471.98 722.04 1470.48 720.6 1467.48 720.6C1465.48 720.6 1463.84 721.22 1462.56 722.46C1461.28 723.66 1460.38 725.48 1459.86 727.92L1456.62 744H1445.22L1451.7 711.48H1462.5L1461.84 714.84C1463.24 713.52 1464.82 712.54 1466.58 711.9C1468.34 711.26 1470.16 710.94 1472.04 710.94ZM1517.18 731.88C1517.1 732.44 1517.06 732.8 1517.06 732.96C1517.06 734.8 1518.06 735.72 1520.06 735.72C1521.14 735.72 1522.28 735.4 1523.48 734.76L1524.92 742.62C1522.68 743.9 1519.86 744.54 1516.46 744.54C1513.1 744.54 1510.42 743.7 1508.42 742.02C1506.46 740.34 1505.48 738 1505.48 735C1505.48 733.84 1505.58 732.82 1505.78 731.94L1507.94 721.2H1503.14L1504.88 712.68H1509.62L1511.3 704.22H1522.7L1521.02 712.68H1528.4L1526.72 721.2H1519.34L1517.18 731.88ZM1544.81 744.54C1541.37 744.54 1538.37 743.94 1535.81 742.74C1533.25 741.5 1531.27 739.76 1529.87 737.52C1528.47 735.28 1527.77 732.68 1527.77 729.72C1527.77 726.16 1528.63 722.96 1530.35 720.12C1532.07 717.28 1534.45 715.04 1537.49 713.4C1540.53 711.76 1543.95 710.94 1547.75 710.94C1551.19 710.94 1554.19 711.56 1556.75 712.8C1559.31 714 1561.29 715.72 1562.69 717.96C1564.09 720.16 1564.79 722.74 1564.79 725.7C1564.79 729.26 1563.93 732.48 1562.21 735.36C1560.49 738.2 1558.11 740.44 1555.07 742.08C1552.07 743.72 1548.65 744.54 1544.81 744.54ZM1545.47 735.36C1547.75 735.36 1549.61 734.52 1551.05 732.84C1552.49 731.16 1553.21 728.98 1553.21 726.3C1553.21 724.38 1552.67 722.86 1551.59 721.74C1550.51 720.62 1549.01 720.06 1547.09 720.06C1544.81 720.06 1542.95 720.9 1541.51 722.58C1540.07 724.26 1539.35 726.46 1539.35 729.18C1539.35 731.1 1539.89 732.62 1540.97 733.74C1542.05 734.82 1543.55 735.36 1545.47 735.36ZM1594.44 744.54C1591.64 744.54 1588.94 744.24 1586.34 743.64C1583.78 743.04 1581.78 742.28 1580.34 741.36L1584.48 733.38C1585.96 734.3 1587.72 735.04 1589.76 735.6C1591.8 736.12 1593.8 736.38 1595.76 736.38C1599.24 736.38 1600.98 735.6 1600.98 734.04C1600.98 733.4 1600.56 732.94 1599.72 732.66C1598.92 732.34 1597.62 732.04 1595.82 731.76C1593.42 731.32 1591.44 730.86 1589.88 730.38C1588.36 729.86 1587.02 729 1585.86 727.8C1584.7 726.6 1584.12 724.92 1584.12 722.76C1584.12 719 1585.72 716.1 1588.92 714.06C1592.16 711.98 1596.34 710.94 1601.46 710.94C1603.78 710.94 1606.02 711.18 1608.18 711.66C1610.34 712.1 1612.22 712.72 1613.82 713.52L1609.8 721.5C1607.08 719.86 1603.86 719.04 1600.14 719.04C1598.38 719.04 1597.06 719.28 1596.18 719.76C1595.34 720.2 1594.92 720.78 1594.92 721.5C1594.92 722.14 1595.32 722.62 1596.12 722.94C1596.96 723.22 1598.32 723.54 1600.2 723.9C1602.52 724.3 1604.44 724.76 1605.96 725.28C1607.52 725.8 1608.86 726.66 1609.98 727.86C1611.14 729.06 1611.72 730.7 1611.72 732.78C1611.72 736.54 1610.1 739.44 1606.86 741.48C1603.62 743.52 1599.48 744.54 1594.44 744.54ZM1654.01 711.48L1647.53 744H1636.73L1637.39 740.64C1635.99 741.96 1634.41 742.94 1632.65 743.58C1630.93 744.22 1629.15 744.54 1627.31 744.54C1623.75 744.54 1620.91 743.58 1618.79 741.66C1616.71 739.74 1615.67 737 1615.67 733.44C1615.67 732.12 1615.81 730.78 1616.09 729.42L1619.69 711.48H1631.09L1627.73 728.34C1627.57 729.1 1627.49 729.84 1627.49 730.56C1627.49 733.4 1628.95 734.82 1631.87 734.82C1633.83 734.82 1635.45 734.22 1636.73 733.02C1638.01 731.78 1638.89 729.96 1639.37 727.56L1642.61 711.48H1654.01ZM1671.85 744.54C1668.41 744.54 1665.39 743.94 1662.79 742.74C1660.23 741.5 1658.23 739.76 1656.79 737.52C1655.39 735.28 1654.69 732.68 1654.69 729.72C1654.69 726.16 1655.55 722.96 1657.27 720.12C1658.99 717.28 1661.39 715.04 1664.47 713.4C1667.55 711.76 1671.01 710.94 1674.85 710.94C1678.53 710.94 1681.71 711.72 1684.39 713.28C1687.07 714.8 1689.03 716.96 1690.27 719.76L1680.55 724.38C1679.35 721.5 1677.25 720.06 1674.25 720.06C1671.93 720.06 1670.01 720.9 1668.49 722.58C1667.01 724.26 1666.27 726.42 1666.27 729.06C1666.27 730.98 1666.81 732.52 1667.89 733.68C1669.01 734.8 1670.59 735.36 1672.63 735.36C1674.15 735.36 1675.49 735.02 1676.65 734.34C1677.81 733.66 1678.81 732.58 1679.65 731.1L1687.99 736.14C1686.43 738.78 1684.23 740.84 1681.39 742.32C1678.59 743.8 1675.41 744.54 1671.85 744.54ZM1706.4 744.54C1702.96 744.54 1699.94 743.94 1697.34 742.74C1694.78 741.5 1692.78 739.76 1691.34 737.52C1689.94 735.28 1689.24 732.68 1689.24 729.72C1689.24 726.16 1690.1 722.96 1691.82 720.12C1693.54 717.28 1695.94 715.04 1699.02 713.4C1702.1 711.76 1705.56 710.94 1709.4 710.94C1713.08 710.94 1716.26 711.72 1718.94 713.28C1721.62 714.8 1723.58 716.96 1724.82 719.76L1715.1 724.38C1713.9 721.5 1711.8 720.06 1708.8 720.06C1706.48 720.06 1704.56 720.9 1703.04 722.58C1701.56 724.26 1700.82 726.42 1700.82 729.06C1700.82 730.98 1701.36 732.52 1702.44 733.68C1703.56 734.8 1705.14 735.36 1707.18 735.36C1708.7 735.36 1710.04 735.02 1711.2 734.34C1712.36 733.66 1713.36 732.58 1714.2 731.1L1722.54 736.14C1720.98 738.78 1718.78 740.84 1715.94 742.32C1713.14 743.8 1709.96 744.54 1706.4 744.54ZM1759.54 725.22C1759.54 726.78 1759.32 728.56 1758.88 730.56H1735C1735.4 734.08 1737.86 735.84 1742.38 735.84C1743.82 735.84 1745.22 735.62 1746.58 735.18C1747.94 734.74 1749.16 734.08 1750.24 733.2L1754.98 740.34C1751.18 743.14 1746.56 744.54 1741.12 744.54C1737.68 744.54 1734.64 743.94 1732 742.74C1729.4 741.5 1727.38 739.78 1725.94 737.58C1724.54 735.34 1723.84 732.72 1723.84 729.72C1723.84 726.16 1724.66 722.96 1726.3 720.12C1727.98 717.24 1730.3 715 1733.26 713.4C1736.26 711.76 1739.68 710.94 1743.52 710.94C1746.76 710.94 1749.58 711.54 1751.98 712.74C1754.42 713.9 1756.28 715.56 1757.56 717.72C1758.88 719.88 1759.54 722.38 1759.54 725.22ZM1742.98 719.04C1741.14 719.04 1739.6 719.54 1738.36 720.54C1737.12 721.5 1736.22 722.84 1735.66 724.56H1749.04C1749.08 722.84 1748.54 721.5 1747.42 720.54C1746.3 719.54 1744.82 719.04 1742.98 719.04ZM1772.54 744.54C1769.74 744.54 1767.04 744.24 1764.44 743.64C1761.88 743.04 1759.88 742.28 1758.44 741.36L1762.58 733.38C1764.06 734.3 1765.82 735.04 1767.86 735.6C1769.9 736.12 1771.9 736.38 1773.86 736.38C1777.34 736.38 1779.08 735.6 1779.08 734.04C1779.08 733.4 1778.66 732.94 1777.82 732.66C1777.02 732.34 1775.72 732.04 1773.92 731.76C1771.52 731.32 1769.54 730.86 1767.98 730.38C1766.46 729.86 1765.12 729 1763.96 727.8C1762.8 726.6 1762.22 724.92 1762.22 722.76C1762.22 719 1763.82 716.1 1767.02 714.06C1770.26 711.98 1774.44 710.94 1779.56 710.94C1781.88 710.94 1784.12 711.18 1786.28 711.66C1788.44 712.1 1790.32 712.72 1791.92 713.52L1787.9 721.5C1785.18 719.86 1781.96 719.04 1778.24 719.04C1776.48 719.04 1775.16 719.28 1774.28 719.76C1773.44 720.2 1773.02 720.78 1773.02 721.5C1773.02 722.14 1773.42 722.62 1774.22 722.94C1775.06 723.22 1776.42 723.54 1778.3 723.9C1780.62 724.3 1782.54 724.76 1784.06 725.28C1785.62 725.8 1786.96 726.66 1788.08 727.86C1789.24 729.06 1789.82 730.7 1789.82 732.78C1789.82 736.54 1788.2 739.44 1784.96 741.48C1781.72 743.52 1777.58 744.54 1772.54 744.54ZM1804.15 744.54C1801.35 744.54 1798.65 744.24 1796.05 743.64C1793.49 743.04 1791.49 742.28 1790.05 741.36L1794.19 733.38C1795.67 734.3 1797.43 735.04 1799.47 735.6C1801.51 736.12 1803.51 736.38 1805.47 736.38C1808.95 736.38 1810.69 735.6 1810.69 734.04C1810.69 733.4 1810.27 732.94 1809.43 732.66C1808.63 732.34 1807.33 732.04 1805.53 731.76C1803.13 731.32 1801.15 730.86 1799.59 730.38C1798.07 729.86 1796.73 729 1795.57 727.8C1794.41 726.6 1793.83 724.92 1793.83 722.76C1793.83 719 1795.43 716.1 1798.63 714.06C1801.87 711.98 1806.05 710.94 1811.17 710.94C1813.49 710.94 1815.73 711.18 1817.89 711.66C1820.05 712.1 1821.93 712.72 1823.53 713.52L1819.51 721.5C1816.79 719.86 1813.57 719.04 1809.85 719.04C1808.09 719.04 1806.77 719.28 1805.89 719.76C1805.05 720.2 1804.63 720.78 1804.63 721.5C1804.63 722.14 1805.03 722.62 1805.83 722.94C1806.67 723.22 1808.03 723.54 1809.91 723.9C1812.23 724.3 1814.15 724.76 1815.67 725.28C1817.23 725.8 1818.57 726.66 1819.69 727.86C1820.85 729.06 1821.43 730.7 1821.43 732.78C1821.43 736.54 1819.81 739.44 1816.57 741.48C1813.33 743.52 1809.19 744.54 1804.15 744.54Z" fill="#E8ECEF"/>
</g>
<defs>
<clipPath id="clip0_1045_8720">
<rect width="1920" height="760" fill="white"/>
</clipPath>
</defs>
</svg>
