<svg width="26" height="26" viewBox="0 0 26 26" fill="none" xmlns="http://www.w3.org/2000/svg">
<g id="btn-reset">
<rect x="0.5" y="0.5" width="25" height="25" rx="5.5" stroke="#F1F3F5"/>
<path id="&#239;&#131;&#162;" d="M12.5547 12.834H8.25781C8.10742 12.834 8 12.7051 8 12.5762V8.25781C8 8.12891 8.10742 8 8.25781 8H9.28906C9.41797 8 9.54688 8.12891 9.54688 8.25781V9.95508C10.5137 8.85938 11.9531 8.17188 13.543 8.19336C16.4863 8.21484 18.8281 10.5781 18.8281 13.5215C18.8281 16.4648 16.4434 18.8281 13.5 18.8281C12.125 18.8281 10.8574 18.3125 9.91211 17.4531C9.80469 17.3672 9.80469 17.1953 9.91211 17.0879L10.6426 16.3574C10.7285 16.25 10.8789 16.25 10.9863 16.3359C11.6523 16.9375 12.5332 17.2812 13.5 17.2812C15.584 17.2812 17.2812 15.6055 17.2812 13.5C17.2812 11.416 15.584 9.71875 13.5 9.71875C12.2324 9.71875 11.1367 10.3418 10.4492 11.2871H12.5547C12.6836 11.2871 12.8125 11.3945 12.8125 11.5449V12.5762C12.8125 12.7051 12.6836 12.834 12.5547 12.834Z" fill="#495057"/>
</g>
</svg>
