<svg width="17" height="16" viewBox="0 0 17 16" fill="none" xmlns="http://www.w3.org/2000/svg">
<path id="&#239;&#130;&#149;" d="M16.4061 0.781863C16.7498 0.875613 16.9998 1.15686 16.9998 1.50061C16.9998 9.53186 10.4998 16.0006 2.49981 16.0006C2.12481 16.0006 1.84356 15.7819 1.74981 15.4381L0.999814 12.1881C0.937314 11.8444 1.09356 11.4694 1.43731 11.3131L4.93731 9.81311C5.24981 9.68811 5.59356 9.78186 5.81231 10.0319L7.37481 11.9381C9.81231 10.7819 11.7811 8.78186 12.9061 6.40686L10.9998 4.84436C10.7498 4.62561 10.6561 4.28186 10.7811 3.96936L12.2811 0.469363C12.4373 0.125613 12.8123 -0.0618865 13.1561 0.0318635L16.4061 0.781863Z" fill="#ADB5BD"/>
</svg>
