<svg width="49" height="50" viewBox="0 0 49 50" fill="none" xmlns="http://www.w3.org/2000/svg">
<g clip-path="url(#clip0_471_7494)">
<path d="M46.92 29.229C47.1895 29.229 47.4526 29.0967 47.6084 28.8558C47.7441 28.6447 47.8715 28.4282 47.9889 28.2063C48.1969 27.8123 48.0429 27.3259 47.6442 27.1193C47.2463 26.9128 46.7531 27.0659 46.545 27.4599C46.4488 27.6411 46.3452 27.8186 46.2343 27.9907C45.9923 28.3657 46.1041 28.8639 46.4845 29.1031C46.6202 29.1882 46.7715 29.229 46.9218 29.229H46.92Z" fill="black"/>
<path d="M9.72991 33.2069H39.5001C41.4829 33.2069 43.3933 32.6172 45.0242 31.5004C45.3945 31.2467 45.4862 30.7449 45.2304 30.3799C44.9738 30.0139 44.4659 29.9233 44.0965 30.1761C42.7397 31.1045 41.1502 31.5955 39.501 31.5955H9.73083C5.56897 31.5955 2.02588 28.5275 1.6647 24.6108C1.4731 22.5328 2.10838 20.5156 3.45411 18.9304C4.80076 17.3443 6.6846 16.3769 8.75912 16.2048C8.99929 16.1849 9.21839 16.0617 9.35681 15.8669C9.49615 15.6722 9.54107 15.4276 9.47965 15.1975C9.16339 14.01 9.05429 12.7772 9.15605 11.5335C9.5759 6.38669 13.812 2.14204 19.0098 1.65924C23.6126 1.2317 27.8973 3.59859 29.9131 7.68834C30.1056 8.07784 30.5759 8.24723 30.9765 8.0715C32.5111 7.39848 34.2822 7.30065 35.8809 7.79432C38.807 8.69651 40.7725 11.3397 40.7725 14.3714C40.7725 14.8615 40.7202 15.3497 40.6175 15.8235C40.5717 16.0354 40.6139 16.2564 40.7349 16.4367C40.8559 16.6169 41.0457 16.7419 41.2602 16.7827C44.8949 17.472 47.4635 20.6415 47.3664 24.3191C47.3545 24.7638 47.7101 25.1334 48.1602 25.1452C48.6177 25.156 48.9844 24.8055 48.9963 24.3607C49.1072 20.1578 46.3497 16.5001 42.3419 15.3814C42.3822 15.0463 42.4024 14.7084 42.4024 14.3705C42.4024 10.6304 39.9768 7.36949 36.3668 6.25625C34.636 5.72272 32.7329 5.74899 31.0297 6.32237C28.5912 2.03244 23.8922 -0.410539 18.8567 0.0568605C12.8825 0.611218 8.01383 5.48993 7.53072 11.4049C7.43905 12.5236 7.49681 13.6359 7.70123 14.722C5.55704 15.1097 3.63104 16.2166 2.20464 17.896C0.577477 19.8117 -0.190731 22.2484 0.0402794 24.7575C0.477551 29.4958 4.73293 33.2069 9.72991 33.2069Z" fill="black"/>
<path d="M28.1338 40.835C28.5839 40.835 28.9487 40.4745 28.9487 40.0297V32.401C28.9487 31.9562 28.5839 31.5957 28.1338 31.5957C27.6837 31.5957 27.3188 31.9562 27.3188 32.401V40.0297C27.3188 40.4745 27.6837 40.835 28.1338 40.835Z" fill="black"/>
<path d="M35.4023 44.5244C35.8524 44.5244 36.2173 44.1639 36.2173 43.7191V32.401C36.2173 31.9562 35.8524 31.5957 35.4023 31.5957C34.9522 31.5957 34.5874 31.9562 34.5874 32.401V43.7191C34.5874 44.1639 34.9522 44.5244 35.4023 44.5244Z" fill="black"/>
<path d="M20.8662 45.3731C21.3163 45.3731 21.6812 45.0126 21.6812 44.5679V32.401C21.6812 31.9562 21.3163 31.5957 20.8662 31.5957C20.4161 31.5957 20.0512 31.9562 20.0512 32.401V44.5679C20.0512 45.0126 20.4161 45.3731 20.8662 45.3731Z" fill="black"/>
<path d="M13.5976 41.8776C14.0477 41.8776 14.4126 41.5171 14.4126 41.0723V32.401C14.4126 31.9562 14.0477 31.5957 13.5976 31.5957C13.1475 31.5957 12.7827 31.9562 12.7827 32.401V41.0723C12.7827 41.5171 13.1475 41.8776 13.5976 41.8776Z" fill="black"/>
<path d="M35.4024 49.1515C37.1423 49.1515 38.5586 47.7529 38.5586 46.0328C38.5586 44.3126 37.1423 42.9141 35.4024 42.9141C33.6624 42.9141 32.2461 44.3126 32.2461 46.0328C32.2461 47.7529 33.6615 49.1515 35.4024 49.1515ZM35.4024 44.5246C36.2439 44.5246 36.9287 45.2012 36.9287 46.0328C36.9287 46.8643 36.2439 47.541 35.4024 47.541C34.5608 47.541 33.877 46.8643 33.877 46.0328C33.877 45.2012 34.5617 44.5246 35.4024 44.5246Z" fill="black"/>
<path d="M28.1338 45.462C29.8737 45.462 31.29 44.0635 31.29 42.3433C31.29 40.6232 29.8737 39.2246 28.1338 39.2246C26.3939 39.2246 24.9776 40.6232 24.9776 42.3433C24.9776 44.0635 26.393 45.462 28.1338 45.462ZM28.1338 40.8351C28.9753 40.8351 29.6601 41.5118 29.6601 42.3433C29.6601 43.1749 28.9753 43.8515 28.1338 43.8515C27.2923 43.8515 26.6084 43.1749 26.6084 42.3433C26.6084 41.5118 27.2932 40.8351 28.1338 40.8351Z" fill="black"/>
<path d="M13.5977 46.505C15.3376 46.505 16.7539 45.1055 16.7539 43.3863C16.7539 41.6671 15.3376 40.2676 13.5977 40.2676C11.8578 40.2676 10.4414 41.6662 10.4414 43.3863C10.4414 45.1064 11.8568 46.505 13.5977 46.505ZM13.5977 41.879C14.4392 41.879 15.124 42.5557 15.124 43.3872C15.124 44.2187 14.4392 44.8954 13.5977 44.8954C12.7561 44.8954 12.0723 44.2187 12.0723 43.3872C12.0723 42.5557 12.7571 41.879 13.5977 41.879Z" fill="black"/>
<path d="M20.8662 49.9991C22.6061 49.9991 24.0225 48.5997 24.0225 46.8804C24.0225 45.1612 22.6061 43.7617 20.8662 43.7617C19.1263 43.7617 17.71 45.1603 17.71 46.8804C17.71 48.6006 19.1254 49.9991 20.8662 49.9991ZM20.8662 45.3732C21.7078 45.3732 22.3926 46.0498 22.3926 46.8813C22.3926 47.7129 21.7078 48.3895 20.8662 48.3895C20.0247 48.3895 19.3408 47.7129 19.3408 46.8813C19.3408 46.0498 20.0256 45.3732 20.8662 45.3732Z" fill="black"/>
</g>
<defs>
<clipPath id="clip0_471_7494">
<rect width="49" height="50" fill="white" transform="matrix(-1 0 0 1 49 0)"/>
</clipPath>
</defs>
</svg>
