<svg width="68" height="65" viewBox="0 0 68 65" fill="none" xmlns="http://www.w3.org/2000/svg">
<g clip-path="url(#clip0_471_7541)">
<path d="M11.6078 46.3702V15.1921C11.6078 14.1625 10 14.1625 10 15.1921V46.3702C10 47.3979 11.6059 47.3998 11.6059 46.3702H11.6078Z" fill="black"/>
<path d="M19.0236 15.9916H55.2162C55.5508 15.9916 56.0822 16.0963 56.4015 15.9916C56.4512 15.9745 56.5487 16.0183 56.5927 15.9916C55.9025 16.4008 56.5965 15.5234 56.392 15.9193C56.2658 16.161 56.392 16.8024 56.392 17.0688V50.0074C56.392 50.2148 56.2677 50.9342 56.392 51.1074C56.5334 51.3015 56.3709 50.8981 56.5927 51.0103C56.5392 50.9837 56.4417 51.0256 56.3843 51.0103C56.0574 50.919 55.568 51.0103 55.2315 51.0103H16.2687C15.2363 51.0103 15.2344 52.609 16.2687 52.609H53.9047C54.7841 52.609 55.6903 52.6718 56.5678 52.609C58.0552 52.5024 57.9979 51.2368 57.9979 50.1539C57.9979 40.6874 57.9979 31.2229 57.9979 21.7564V16.7795C57.9979 15.7023 58.0094 14.4938 56.5526 14.3948C55.5852 14.3282 54.5872 14.3948 53.6179 14.3948H19.0236C17.9912 14.3948 17.9893 15.9935 19.0236 15.9935V15.9916Z" fill="black"/>
<path d="M16.2686 51.0114C13.4372 50.9448 11.1756 48.4364 11.6688 45.5911C12.2252 42.3937 15.8155 40.8312 18.6183 42.3595C19.1478 42.6488 19.8265 42.2872 19.8265 41.6686V10.4943C19.8265 10.2184 19.6755 9.93862 19.4289 9.80349C15.2114 7.50063 10.1145 10.4106 9.9998 15.1914C9.97494 16.221 11.5809 16.221 11.6057 15.1914C11.6918 11.6344 15.4733 9.46662 18.6183 11.1852L18.2206 10.4943V41.6705L19.4289 40.9797C15.762 38.9775 10.9098 40.9378 10.1202 45.1667C9.39949 49.0321 12.3609 52.5206 16.2686 52.6101C17.3029 52.6348 17.3029 51.0361 16.2686 51.0114Z" fill="black"/>
<path d="M44.5198 40.9914C44.0609 40.6126 43.604 40.2339 43.1452 39.8552C42.868 39.6268 42.499 39.5373 42.1721 39.7296C41.2773 40.2568 40.3482 40.6031 39.3292 40.803C39.0845 40.8505 38.8053 41.1094 38.769 41.3606C38.7117 41.7431 38.7556 42.8242 38.509 43.0906C38.2911 43.3266 37.4269 43.1001 37.1115 43.0735C36.7712 43.0449 36.362 43.0659 36.0313 42.9821C35.7273 42.906 35.9338 43.0354 35.8707 42.887C35.7025 42.4892 35.8956 41.6423 35.9051 41.1969C35.9128 40.8201 35.6451 40.5498 35.3163 40.4261C34.4177 40.0874 33.6052 39.6078 32.8711 38.9892C32.5958 38.757 32.2249 38.6752 31.8979 38.8636C31.5194 39.0825 30.8656 39.6591 30.4392 39.7029C30.3322 39.7143 30.3608 39.7143 30.2041 39.4821C30.0091 39.1929 29.8141 38.9017 29.621 38.6124C29.4374 38.3402 29.2635 38.0605 29.0723 37.794C28.9671 37.6494 28.9002 37.558 28.8945 37.5732C29.0054 37.2516 29.946 36.7701 30.2308 36.5531C30.5157 36.3362 30.7184 36.0145 30.5998 35.651C30.2786 34.6576 30.1391 33.6717 30.1754 32.6307C30.1888 32.25 29.9116 31.9874 29.5866 31.8599C29.2615 31.7324 28.2177 31.5249 28.0189 31.2432C28.0074 31.2261 28.0495 31.1747 28.1106 30.992C28.2158 30.6818 28.3133 30.3678 28.4127 30.0556C28.5198 29.7245 28.6345 29.3933 28.7339 29.0603C28.8084 28.811 28.8142 28.7843 28.8887 28.7672C29.2692 28.6739 30.1295 29.0793 30.5233 29.1764C30.8866 29.2677 31.2288 29.1117 31.4295 28.8091C31.961 28.0154 32.6111 27.3227 33.3815 26.7536C33.6645 26.5443 33.8633 26.215 33.7505 25.8515C33.6128 25.4061 33.2095 24.6848 33.2515 24.2338C33.2687 24.0511 33.0928 24.2585 33.37 24.0929C33.6645 23.9198 34.0659 23.8303 34.3833 23.7104C34.6758 23.6 35.4463 23.1394 35.7216 23.2974C36.0179 23.4668 36.297 24.5573 36.45 24.8904C36.557 25.1245 36.8897 25.3072 37.144 25.2862C38.1802 25.2025 39.159 25.2786 40.1666 25.5375C40.5317 25.6326 40.8682 25.469 41.0728 25.1701C41.3232 24.8066 41.6176 24.0987 41.9751 23.855C42.1759 23.718 41.9465 23.7675 42.239 23.8893C42.5602 24.0225 42.8737 24.2623 43.1719 24.4393C43.4702 24.6163 43.7608 24.7762 44.0495 24.957C44.298 25.1131 44.2731 25.035 44.2712 25.1625C44.2636 25.5698 43.7149 26.2512 43.5237 26.6261C43.3574 26.9534 43.3937 27.3246 43.6499 27.5948C44.3649 28.3466 44.904 29.1802 45.3246 30.1242C45.4298 30.3602 45.7644 30.5391 46.0186 30.52C46.3876 30.4934 47.4085 30.2231 47.7125 30.3944C48.0165 30.5657 47.9725 31.3232 48.0241 31.6905C48.0719 32.035 48.1388 32.3813 48.1694 32.7258C48.2115 33.1845 48.2516 32.9142 48.0853 33.0018C47.6418 33.2359 46.9153 33.2416 46.4201 33.3444C46.1773 33.3938 45.8944 33.6489 45.86 33.902C45.7147 34.9221 45.4298 35.8756 44.9537 36.791C44.7836 37.1184 44.8257 37.4895 45.0799 37.7598L45.8657 38.6029C45.9402 38.6828 46.2404 38.915 46.2557 39.0216C46.2557 39.033 46.1983 39.0387 46.1123 39.1738C45.9383 39.4498 44.5637 40.9857 44.3592 40.862C43.4702 40.331 42.6615 41.7127 43.5486 42.2418C45.1086 43.1724 46.4431 41.2388 47.3493 40.1977C48.5805 38.7837 47.1695 37.6532 46.2155 36.6293L46.3417 37.598C46.8828 36.5588 47.246 35.4854 47.4104 34.3264L46.8503 34.884C47.5844 34.7337 48.5652 34.6994 49.177 34.237C50.087 33.5499 49.7352 32.4061 49.6014 31.4526C49.4675 30.4991 49.5077 29.4352 48.5613 28.9613C47.8368 28.5978 46.7948 28.8623 46.0205 28.9194L46.7145 29.3153C46.2385 28.2476 45.5942 27.3093 44.7874 26.4624L44.9136 27.4311C45.252 26.7707 45.8427 25.9733 45.9058 25.2177C46.0072 24.0358 44.8314 23.5562 43.9864 23.0576C43.1413 22.559 42.2332 21.8148 41.2486 22.3782C40.5661 22.7683 40.1207 23.7351 39.6905 24.3632L40.5967 23.9959C39.4592 23.7028 38.3197 23.5924 37.1478 23.6876L37.8418 24.0834C37.5225 23.3831 37.2587 22.3496 36.5876 21.8986C35.6891 21.2953 34.6643 21.9043 33.7849 22.2354C32.9055 22.5666 31.7985 22.814 31.6494 23.914C31.5443 24.6772 31.9859 25.5565 32.2077 26.274L32.5766 25.3719C31.5748 26.1141 30.7413 26.9649 30.0492 28.0002L30.9554 27.6329C30.206 27.4445 29.2271 27.0124 28.449 27.2009C27.3688 27.4616 27.1891 28.6397 26.8985 29.5399C26.6079 30.4401 26.109 31.4183 26.7896 32.2538C27.3019 32.8838 28.4356 33.1141 29.164 33.4015L28.5752 32.6307C28.5351 33.8087 28.6957 34.9545 29.057 36.0773L29.426 35.1752C28.8199 35.6377 27.8774 36.1306 27.5065 36.8158C26.9597 37.8283 27.755 38.6999 28.2923 39.5012C28.7951 40.251 29.273 41.3035 30.313 41.3454C31.1466 41.3796 32.0299 40.6393 32.7143 40.2453L31.7412 40.1197C32.6971 40.9267 33.7237 41.5262 34.8957 41.9677L34.3068 41.1969C34.2915 41.9201 34.1271 42.8223 34.3718 43.5169C34.7638 44.6246 35.9606 44.5751 36.9298 44.6569C37.8131 44.7312 38.9506 45.0319 39.6523 44.3105C40.2449 43.7015 40.2067 42.571 40.3252 41.7869L39.7651 42.3445C40.916 42.12 41.9828 41.7032 42.9922 41.1113L42.0191 40.9857C42.4779 41.3644 42.9349 41.7431 43.3937 42.1219C44.1833 42.7747 45.3246 41.6499 44.5293 40.9914H44.5198Z" fill="black"/>
<path d="M41.7784 33.2034C41.721 35.1941 40.1533 36.8537 38.1115 36.8537C36.1079 36.8537 34.4504 35.1941 34.4446 33.2034C34.4389 31.2107 36.1175 29.5531 38.1115 29.5531C40.1055 29.5531 41.721 31.2145 41.7784 33.2034C41.809 34.2292 43.4149 34.2349 43.3843 33.2034C43.3212 31.0166 42.0307 29.0658 39.9488 28.2874C37.8668 27.509 35.4636 28.158 34.0546 29.8557C30.9651 33.5764 34.349 39.2365 39.0999 38.3591C41.6044 37.8966 43.3116 35.687 43.3843 33.2053C43.4149 32.1757 41.809 32.1776 41.7784 33.2053V33.2034Z" fill="black"/>
</g>
<defs>
<clipPath id="clip0_471_7541">
<rect width="48" height="43.6364" fill="white" transform="translate(10 9)"/>
</clipPath>
</defs>
</svg>
