<svg width="28" height="28" viewBox="0 0 28 28" fill="none" xmlns="http://www.w3.org/2000/svg">
<g id="Group 63">
<circle id="Ellipse 12" cx="14" cy="14" r="14" fill="#566BDA"/>
<path id="m" d="M17.8523 9.80078C18.9585 9.80078 19.8347 10.1085 20.4808 10.7239C21.138 11.329 21.4665 12.2418 21.4665 13.4623V18.2008H18.9037V13.8316C18.9037 13.1751 18.7559 12.688 18.4602 12.37C18.1754 12.0418 17.7647 11.8777 17.228 11.8777C16.6257 11.8777 16.1492 12.0623 15.7988 12.4315C15.4483 12.7905 15.2731 13.329 15.2731 14.0469V18.2008H12.7102V13.8316C12.7102 12.529 12.1517 11.8777 11.0346 11.8777C10.4431 11.8777 9.9722 12.0623 9.62173 12.4315C9.27125 12.7905 9.09602 13.329 9.09602 14.0469V18.2008H6.5332V9.92386H8.98102V10.8777C9.30959 10.529 9.70934 10.2623 10.1803 10.0777C10.6622 9.89309 11.1879 9.80078 11.7574 9.80078C12.3817 9.80078 12.9457 9.91873 13.4495 10.1546C13.9533 10.3803 14.3586 10.7136 14.6652 11.1546C15.0266 10.7239 15.4812 10.3905 16.0288 10.1546C16.5873 9.91873 17.1952 9.80078 17.8523 9.80078Z" fill="white"/>
</g>
</svg>
