<svg width="49" height="49" viewBox="0 0 49 49" fill="none" xmlns="http://www.w3.org/2000/svg">
<g clip-path="url(#clip0_471_7462)">
<path d="M16.846 32.976H27.9292C28.384 32.976 28.7526 32.6074 28.7526 32.1526C28.7526 31.6978 28.384 31.3292 27.9292 31.3292H17.6703V17.6683H31.3312V32.1526C31.3312 32.6074 31.6998 32.976 32.1546 32.976C32.6094 32.976 32.978 32.6074 32.978 32.1526V16.8449C32.978 16.3901 32.6094 16.0215 32.1546 16.0215H16.8469C16.3921 16.0215 16.0235 16.3901 16.0235 16.8449V32.1526C16.0235 32.6074 16.3921 32.976 16.8469 32.976H16.846Z" fill="black"/>
<path d="M11.8917 42.3137H37.1072C39.9785 42.3137 42.3135 39.9777 42.3135 37.1074V11.8918C42.3135 9.02056 39.9785 6.68555 37.1072 6.68555H11.8917C9.02037 6.68555 6.68537 9.02148 6.68537 11.8918V37.1074C6.68537 39.9777 9.02037 42.3137 11.8917 42.3137ZM37.1072 8.33237C39.0698 8.33237 40.6667 9.92918 40.6667 11.8918V37.1074C40.6667 39.07 39.0698 40.6668 37.1072 40.6668H11.8917C9.929 40.6668 8.33219 39.07 8.33219 37.1074V11.8918C8.33219 9.92918 9.929 8.33237 11.8917 8.33237H37.1072Z" fill="black"/>
<path d="M0.823626 13.6859H7.50911C7.96388 13.6859 8.33252 13.3173 8.33252 12.8625C8.33252 12.4077 7.96388 12.0391 7.50911 12.0391H0.823626C0.36885 12.0391 0.000211716 12.4077 0.000211716 12.8625C0.000211716 13.3173 0.36885 13.6859 0.823626 13.6859Z" fill="black"/>
<path d="M0.823626 36.9632H7.50911C7.96388 36.9632 8.33252 36.5946 8.33252 36.1398C8.33252 35.685 7.96388 35.3164 7.50911 35.3164H0.823626C0.36885 35.3164 0.000211716 35.685 0.000211716 36.1398C0.000211716 36.5946 0.36885 36.9632 0.823626 36.9632Z" fill="black"/>
<path d="M0.823626 25.3246H7.50911C7.96388 25.3246 8.33252 24.9559 8.33252 24.5011C8.33252 24.0464 7.96388 23.6777 7.50911 23.6777H0.823626C0.36885 23.6777 0.000211716 24.0464 0.000211716 24.5011C0.000211716 24.9559 0.36885 25.3246 0.823626 25.3246Z" fill="black"/>
<path d="M36.1385 8.33323C36.5933 8.33323 36.9619 7.9646 36.9619 7.50982V0.823413C36.9619 0.368637 36.5933 0 36.1385 0C35.6837 0 35.3151 0.368637 35.3151 0.823413V7.50889C35.3151 7.96367 35.6837 8.33231 36.1385 8.33231V8.33323Z" fill="black"/>
<path d="M12.8616 8.33323C13.3164 8.33323 13.6851 7.9646 13.6851 7.50982V0.823413C13.6851 0.368637 13.3164 0 12.8616 0C12.4069 0 12.0382 0.368637 12.0382 0.823413V7.50889C12.0382 7.96367 12.4069 8.33231 12.8616 8.33231V8.33323Z" fill="black"/>
<path d="M24.4993 8.33323C24.9541 8.33323 25.3228 7.9646 25.3228 7.50982V0.823413C25.3228 0.368637 24.9541 0 24.4993 0C24.0446 0 23.6759 0.368637 23.6759 0.823413V7.50889C23.6759 7.96367 24.0446 8.33231 24.4993 8.33231V8.33323Z" fill="black"/>
<path d="M36.1385 48.9993C36.5933 48.9993 36.9619 48.6306 36.9619 48.1758V41.4894C36.9619 41.0347 36.5933 40.666 36.1385 40.666C35.6837 40.666 35.3151 41.0347 35.3151 41.4894V48.1758C35.3151 48.6306 35.6837 48.9993 36.1385 48.9993Z" fill="black"/>
<path d="M12.8616 48.9993C13.3164 48.9993 13.6851 48.6306 13.6851 48.1758V41.4894C13.6851 41.0347 13.3164 40.666 12.8616 40.666C12.4069 40.666 12.0382 41.0347 12.0382 41.4894V48.1758C12.0382 48.6306 12.4069 48.9993 12.8616 48.9993Z" fill="black"/>
<path d="M24.4993 48.9993C24.9541 48.9993 25.3228 48.6306 25.3228 48.1758V41.4894C25.3228 41.0347 24.9541 40.666 24.4993 40.666C24.0446 40.666 23.6759 41.0347 23.6759 41.4894V48.1758C23.6759 48.6306 24.0446 48.9993 24.4993 48.9993Z" fill="black"/>
<path d="M41.4902 13.6859H48.1766C48.6314 13.6859 49 13.3173 49 12.8625C49 12.4077 48.6314 12.0391 48.1766 12.0391H41.4902C41.0354 12.0391 40.6668 12.4077 40.6668 12.8625C40.6668 13.3173 41.0354 13.6859 41.4902 13.6859Z" fill="black"/>
<path d="M41.4902 36.9632H48.1766C48.6314 36.9632 49 36.5946 49 36.1398C49 35.685 48.6314 35.3164 48.1766 35.3164H41.4902C41.0354 35.3164 40.6668 35.685 40.6668 36.1398C40.6668 36.5946 41.0354 36.9632 41.4902 36.9632Z" fill="black"/>
<path d="M41.4902 25.3246H48.1766C48.6314 25.3246 49 24.9559 49 24.5011C49 24.0464 48.6314 23.6777 48.1766 23.6777H41.4902C41.0354 23.6777 40.6668 24.0464 40.6668 24.5011C40.6668 24.9559 41.0354 25.3246 41.4902 25.3246Z" fill="black"/>
</g>
<defs>
<clipPath id="clip0_471_7462">
<rect width="49" height="49" fill="white" transform="matrix(-1 0 0 1 49 0)"/>
</clipPath>
</defs>
</svg>
