<svg width="49" height="49" viewBox="0 0 49 49" fill="none" xmlns="http://www.w3.org/2000/svg">
<g clip-path="url(#clip0_471_7519)">
<path d="M22.6063 13.1743C22.5845 13.8546 22.5607 14.535 22.5389 15.2153C22.527 15.5961 22.2871 15.9036 21.9282 16.0186C20.7901 16.3816 19.7808 16.9231 18.833 17.6451C18.6129 17.8137 18.2163 17.7918 17.9923 17.6451C17.5441 17.3535 16.866 16.6831 16.3584 16.5779C16.1026 16.5264 16.2533 16.4847 16.0213 16.7168C15.7298 17.0103 15.5018 17.413 15.254 17.7423C15.0299 18.0418 14.2725 18.732 14.441 19.1247C14.6254 19.5571 15.5811 20.0986 15.9499 20.414C16.1542 20.5886 16.2612 20.9694 16.1641 21.2252C15.7378 22.338 15.5038 23.4567 15.476 24.6487C15.4681 25.0316 15.2203 25.335 14.8653 25.4521L14.0781 25.7119C13.8918 25.7734 13.1165 25.9102 13.0134 26.063C12.819 26.3545 13.2196 27.2431 13.3147 27.6141C13.398 27.9374 13.513 29.0203 13.7886 29.1453C13.9691 29.2266 14.7047 28.9688 14.8891 28.9331L15.7041 28.7764C16.0709 28.705 16.4476 28.824 16.6439 29.1592C17.2547 30.2025 18.0101 31.0772 18.9421 31.8468C19.1522 32.0194 19.2494 32.4042 19.1562 32.6581C18.9896 33.1162 18.4305 34.0286 18.486 34.4908C18.5415 34.9529 19.4497 35.1493 19.8601 35.3298C20.221 35.4885 20.5938 35.7067 20.9705 35.8197C21.2858 35.9149 21.1926 35.9943 21.379 35.8336C21.7716 35.4964 22.0511 34.5443 22.295 34.0743C22.4814 33.7153 22.878 33.6419 23.2349 33.6914C24.3314 33.8442 25.42 33.7886 26.5026 33.5665C26.8734 33.4911 27.2422 33.6181 27.4425 33.9493C27.5853 34.1853 27.73 34.4234 27.8728 34.6594C27.9858 34.8458 28.2555 35.5123 28.4557 35.6194C28.773 35.788 29.6375 35.1453 29.9726 34.9688C30.2284 34.8359 31.2456 34.4551 31.311 34.2171C31.3626 34.0267 30.9303 33.3562 30.857 33.1916L30.5219 32.4339C30.3731 32.0987 30.3632 31.698 30.6527 31.4243C31.5192 30.6012 32.1993 29.6808 32.7407 28.6157C32.8596 28.3836 33.1908 28.1694 33.4604 28.2031C33.9918 28.2706 34.896 28.5939 35.3977 28.4531C35.8993 28.3122 35.8319 27.5188 35.9231 27.0507C36.0143 26.5826 36.3831 25.6048 36.1016 25.335C35.9112 25.1525 35.2648 25.1149 35.015 25.0494L34.2119 24.8392C33.8332 24.74 33.6329 24.4028 33.6012 24.0358C33.506 22.933 33.2344 21.8699 32.7744 20.8643C32.6197 20.5271 32.6217 20.1304 32.9052 19.8547L33.5021 19.2775C33.6766 19.1089 34.2337 18.7419 34.3091 18.496C34.3805 18.2659 34.3329 18.2837 34.1207 18.0338L33.3157 17.0877C33.0123 16.7307 32.6574 16.0067 32.1795 16.1138C31.7016 16.2209 31.0255 16.9727 30.6131 17.2821C30.391 17.4467 29.9964 17.4308 29.7723 17.2821C28.7789 16.6196 27.7379 16.1515 26.58 15.8579C26.1993 15.7607 26.003 15.4176 25.9692 15.0546C25.9256 14.5925 25.88 14.1283 25.8364 13.6662C25.7888 13.1624 25.886 13.0652 25.4101 13.0612C24.841 13.0573 24.266 13.0969 23.6969 13.1148C23.3202 13.1267 22.6519 12.9581 22.5806 13.3945C22.4081 14.4497 20.8039 14.0014 20.9745 12.9521C21.2858 11.0381 24.038 11.3891 25.4676 11.3931C27.6051 11.4011 27.4802 13.4579 27.6329 15.0526L27.0221 14.2493C28.311 14.5746 29.5086 15.1022 30.6131 15.8401H29.7723C30.4465 15.3383 31.2456 14.4834 32.1081 14.3604C33.3236 14.1878 33.9958 15.3224 34.6779 16.1257C35.36 16.929 36.3375 17.7561 35.9707 18.9026C35.6991 19.7555 34.7017 20.4299 34.083 21.0309L34.2139 20.0213C34.8028 21.3125 35.1458 22.6196 35.2688 24.0339L34.6581 23.2306C35.471 23.4448 36.5695 23.542 37.2477 24.0715C38.2569 24.859 37.789 26.1641 37.5847 27.2114C37.3924 28.1972 37.3646 29.4726 36.3276 29.9665C35.5028 30.3572 34.321 29.9804 33.4604 29.8693L34.1802 29.4567C33.5794 30.6409 32.7962 31.6881 31.8325 32.6025L31.9634 31.5929C32.3124 32.3804 32.9845 33.39 32.9687 34.2726C32.9469 35.5361 31.6719 35.9625 30.734 36.4525C29.7961 36.9424 28.7968 37.708 27.7657 37.1844C26.9389 36.7659 26.4669 35.542 26.0089 34.7903L26.9488 35.1731C25.5548 35.4607 24.2045 35.4925 22.7967 35.2981L23.7366 34.9153C23.3479 35.661 23.0108 36.7103 22.3347 37.2419C21.3334 38.0293 20.1754 37.2776 19.1959 36.8452C18.2679 36.4366 17.0425 36.1331 16.8105 34.9906C16.6281 34.0981 17.2527 33.0309 17.5521 32.2138L17.7662 33.025C16.7332 32.1701 15.8845 31.1566 15.2084 30.0002L16.1482 30.383C15.2996 30.5456 14.1654 30.9741 13.3048 30.744C12.1032 30.4207 11.9743 29.0739 11.7106 28.0584C11.4469 27.0428 10.9314 25.8944 11.6908 25.0078C12.2896 24.3076 13.5904 24.1211 14.4232 23.8454L13.8124 24.6487C13.8422 23.3139 14.0821 22.0286 14.56 20.7829L14.7741 21.5942C14.1317 21.0448 13.1403 20.4616 12.8111 19.6523C12.3451 18.4999 13.2969 17.5994 13.9334 16.7505C14.5699 15.9016 15.1449 14.775 16.3287 14.8503C17.2289 14.9079 18.1093 15.733 18.835 16.207H17.9943C19.0551 15.3978 20.217 14.8166 21.488 14.412L20.8773 15.2153L20.9447 13.1743C20.9804 12.1052 22.646 12.0992 22.6103 13.1743H22.6063Z" fill="black"/>
<path d="M27.3075 21.3111C25.521 19.8057 22.8263 19.9564 21.2737 21.7316C19.7212 23.5068 19.9452 26.2341 21.6941 27.7674C23.443 29.3006 26.2031 29.1003 27.7279 27.3469C29.2527 25.5935 29.0068 22.9078 27.3075 21.3111C26.5243 20.5753 27.7041 19.399 28.4853 20.1329C30.2917 21.8308 30.9441 24.4589 29.9982 26.7776C29.0524 29.0963 26.7424 30.5859 24.2758 30.4768C18.8626 30.2408 16.5645 23.1835 20.8653 19.8493C23.1693 18.0622 26.3002 18.2923 28.4853 20.1329C29.3062 20.8252 28.1225 21.9974 27.3075 21.3111Z" fill="black"/>
<path d="M38.6656 39.3744C34.7733 43.024 29.6159 45.0947 24.2682 45.0313C18.9205 44.9678 13.7889 42.782 9.97986 39.0253C9.65864 38.7099 9.6626 38.1644 9.97986 37.8471C11.239 36.5876 12.4961 35.33 13.7552 34.0705L14.122 35.4629C9.93822 34.731 5.75442 33.9971 1.56864 33.2652L2.59377 32.2398C3.32544 36.4249 4.05909 40.6101 4.79076 44.7972L3.3988 44.4303L7.17413 40.6537C7.49337 40.3344 8.03072 40.3363 8.35194 40.6537C13.1227 45.3665 19.7037 47.8042 26.3958 47.2686C33.3576 46.7113 39.8216 42.8276 43.6327 36.9803C45.9883 33.3644 47.2414 29.1614 47.3346 24.8533C47.3584 23.7822 49.024 23.7782 49.0002 24.8533C48.8257 32.9736 44.6836 40.5684 37.8844 45.0352C31.9517 48.9308 24.3733 50.0217 17.5722 48.0144C13.6422 46.8541 10.0849 44.7079 7.17413 41.8299H8.35194C7.09284 43.0894 5.83572 44.3469 4.57661 45.6065C4.16616 46.017 3.2957 45.8742 3.18466 45.2395C2.45299 41.0544 1.71934 36.8692 0.987667 32.6821C0.872662 32.0255 1.35648 31.5416 2.0128 31.6566C6.19659 32.3885 10.3804 33.1224 14.5662 33.8543C15.2007 33.9654 15.3454 34.8361 14.933 35.2467C13.6739 36.5062 12.4168 37.7638 11.1577 39.0233V37.8451C18.3732 44.9579 30.0898 45.1304 37.4878 38.1922C38.2691 37.4603 39.4489 38.6345 38.6656 39.3704V39.3744Z" fill="black"/>
<path d="M-0.000105369 24.8515C-0.0695049 16.5883 4.01119 8.74159 10.8778 4.12206C16.8144 0.129301 24.4246 -1.03302 31.2931 0.946495C35.2727 2.09295 38.8815 4.2609 41.822 7.16869H40.6442C41.9033 5.90918 43.1624 4.64966 44.4215 3.39015C44.832 2.97957 45.7024 3.12238 45.8135 3.75709C46.5451 7.94224 47.2768 12.1294 48.0085 16.3145C48.1235 16.9711 47.6397 17.455 46.9833 17.34C42.7995 16.6081 38.6158 15.8742 34.43 15.1423C33.7955 15.0312 33.6507 14.1605 34.0631 13.7499C35.3223 12.4904 36.5794 11.2328 37.8385 9.97333V11.1515C30.3394 3.75908 18.1092 3.93362 10.8044 11.5085C10.0589 12.2821 8.88105 11.1019 9.6266 10.3304C13.4475 6.36736 18.71 4.0447 24.2243 3.96933C29.7544 3.89395 35.0883 6.10157 39.0183 9.97532C39.3395 10.2907 39.3355 10.8362 39.0183 11.1535C37.7592 12.413 36.502 13.6705 35.2429 14.9301L34.8761 13.5377C39.0599 14.2696 43.2437 15.0034 47.4295 15.7354L46.4044 16.7608C45.6727 12.5757 44.941 8.38853 44.2094 4.20338L45.6013 4.57032C44.3422 5.82983 43.0831 7.08935 41.824 8.34886C41.5048 8.6682 40.9674 8.66622 40.6462 8.34886C35.8061 3.56668 29.114 1.13889 22.3307 1.75576C15.5474 2.37262 8.81165 6.45463 5.09183 12.4507C2.77984 16.1757 1.62979 20.4759 1.66548 24.8515C1.6754 25.9245 0.00980884 25.9245 -0.000105369 24.8515Z" fill="black"/>
</g>
<defs>
<clipPath id="clip0_471_7519">
<rect width="49" height="49" fill="white" transform="matrix(1 0 0 -1 0 49)"/>
</clipPath>
</defs>
</svg>
