<svg width="67" height="65" viewBox="0 0 67 65" fill="none" xmlns="http://www.w3.org/2000/svg">
<g id="icon">
<g id="Group">
<path id="Vector" d="M58.2763 53.1097H39.245C30.2269 53.1097 21.2087 53.1097 12.1905 53.1097C11.2809 53.1097 10.3657 53.1419 9.45799 53.1097C9.25008 53.1022 8.96606 53.1438 8.81384 53.0096C8.59293 52.8169 8.45742 52.0271 8.35717 51.7512C8.20867 51.3412 7.77799 50.6497 7.79841 50.2113C7.81141 49.9336 8.37574 50.011 8.68018 50.011H18.0975C20.3121 50.011 22.5286 50.011 24.7432 50.011C25.2611 50.011 25.8106 49.9562 26.3267 50.011C26.5569 50.0356 26.7221 50.1055 26.9114 50.2434C27.5017 50.6761 27.7895 51.1901 28.5914 51.2921C30.3475 51.515 32.2317 51.3148 33.9971 51.3148H37.4314C38.0922 51.3148 38.8719 51.4092 39.4845 51.1164C40.1658 50.7914 40.4498 50.0639 41.2313 50.0091C41.8309 49.9676 42.4472 50.0091 43.0468 50.0091H58.952C59.0709 50.0091 59.2064 49.9921 59.3252 50.0091C59.8227 50.0809 59.6742 50.1131 59.5349 50.5004L58.9613 52.0819C58.7998 52.5259 58.7831 53.0644 58.2763 53.1079C57.2832 53.1929 57.2739 54.78 58.2763 54.695C59.8097 54.5646 60.1011 53.5084 60.5559 52.2557C60.9198 51.2543 61.7106 49.9317 60.7954 48.9964C59.8802 48.0611 57.6916 48.422 56.5147 48.422C51.7494 48.422 46.9841 48.422 42.2207 48.422C41.8142 48.422 41.4021 48.4012 40.9974 48.422C40.3607 48.4541 39.8873 48.6865 39.4251 49.1192C39.0835 49.4404 38.9016 49.6804 38.4301 49.7257C37.565 49.8089 36.6554 49.7257 35.7866 49.7257H31.8233C30.9119 49.7257 29.9763 49.7881 29.0648 49.7257C28.7214 49.703 28.5357 49.6067 28.2628 49.3724C27.6799 48.8717 27.2734 48.4636 26.4436 48.422C25.1145 48.354 23.763 48.422 22.432 48.422C17.8468 48.422 13.2635 48.422 8.67832 48.422C7.98034 48.422 7.29534 48.4182 6.72915 48.9265C5.70816 49.8391 6.47669 51.139 6.85167 52.1726C7.26007 53.3006 7.52182 54.5061 8.91594 54.6742C9.13127 54.7007 9.3429 54.695 9.56009 54.695C17.5814 54.695 25.6045 54.695 33.6258 54.695H58.2745C59.2769 54.695 59.2788 53.1079 58.2745 53.1079L58.2763 53.1097Z" fill="black"/>
<path id="Vector_2" d="M17.3532 19.367C16.2802 19.367 15.12 19.2479 14.073 19.5276C12.3912 19.9754 11.0304 21.4038 10.7446 23.161C10.5515 24.3495 10.6815 25.6438 10.6815 26.8398V46.1407C10.6815 46.5696 11.0379 46.9343 11.4611 46.9343C16.4788 46.9343 21.4947 46.9343 26.5124 46.9343C34.5059 46.9343 42.4993 46.9343 50.4928 46.9343H55.9839C56.4053 46.9343 56.7635 46.5715 56.7635 46.1407V35.1969C56.7635 31.4312 56.8768 27.6466 56.7635 23.8847C56.7097 22.0708 55.6776 20.4874 54.0328 19.7656C52.7947 19.2234 51.408 19.3651 50.0918 19.3651C49.0894 19.3651 49.0875 20.9522 50.0918 20.9522C51.0961 20.9522 52.247 20.7916 53.1975 21.1298C54.4301 21.5663 55.1634 22.6603 55.2042 23.964C55.245 25.2678 55.2042 26.5904 55.2042 27.8998V46.1407L55.9839 45.3471H40.9326C32.9391 45.3471 24.9457 45.3471 16.9522 45.3471C15.1218 45.3471 13.2915 45.3471 11.4611 45.3471L12.2408 46.1407C12.2408 38.8171 12.1944 31.4917 12.2408 24.1681C12.2482 23.0779 12.6158 22.1067 13.5477 21.4775C14.6448 20.7368 16.102 20.9503 17.3532 20.9503C18.3556 20.9503 18.3575 19.3632 17.3532 19.3632V19.367Z" fill="black"/>
</g>
<g id="Group_2">
<g id="Group_3">
<path id="Vector_3" d="M47.188 23.2948C47.1267 29.0482 43.5607 34.3368 38.1735 36.232C33.0222 38.044 27.2266 36.4946 23.6086 32.3472C19.6694 27.8295 19.1905 21.0029 22.3648 15.9221C25.2626 11.2835 30.8094 8.8026 36.1278 9.80402C42.5063 11.0057 47.1156 16.7213 47.1861 23.2948C47.1973 24.3151 48.7566 24.3189 48.7455 23.2948C48.6768 16.8517 44.7042 11.0435 38.7212 8.87062C33.0147 6.79788 26.3839 8.56453 22.4131 13.2221C18.1101 18.2726 17.4752 25.8002 21.0171 31.4667C24.2843 36.693 30.4177 39.4063 36.3989 38.3368C43.5143 37.0652 48.6656 30.5749 48.7436 23.2948C48.7547 22.2726 47.1954 22.2726 47.1843 23.2948H47.188Z" fill="black"/>
<path id="Vector_4" d="M39.488 23.2947C39.475 25.8606 39.1984 28.4284 38.4837 30.8961C37.9435 32.7647 37.1415 34.7978 35.6769 36.1261C32.5266 38.9848 29.9649 34.059 29.1407 31.5026C27.6407 26.8583 27.5498 21.5489 28.6636 16.8063C29.2205 14.4369 31.294 8.03542 34.8694 9.88143C36.7053 10.8299 37.6929 13.2107 38.298 15.0793C39.152 17.7265 39.4731 20.5134 39.488 23.291C39.4935 24.3113 41.0529 24.3151 41.0473 23.291C41.0324 20.385 40.6964 17.428 39.8017 14.658C39.1223 12.5494 38.0994 10.3047 36.308 8.94048C34.9121 7.87671 33.1392 7.6991 31.6152 8.60415C29.8108 9.67737 28.7341 11.7369 27.9934 13.6471C25.9422 18.9452 25.8698 25.3826 27.3196 30.8431C28.1902 34.1214 30.7817 39.9995 35.133 38.3065C37.3402 37.4468 38.6248 35.0434 39.4416 32.931C40.6203 29.889 41.0269 26.5427 41.0436 23.291C41.0492 22.2688 39.4898 22.2688 39.4842 23.291L39.488 23.2947Z" fill="black"/>
<g id="Group_4">
<path id="Vector_5" d="M44.7728 13.9688C41.5149 15.9717 37.4681 16.5555 33.7201 16.5555C29.974 16.5555 25.929 15.9717 22.6729 13.9688L22.9532 15.0553C25.4946 11.6372 29.508 9.59094 33.7219 9.58716C37.934 9.58338 41.953 11.641 44.4943 15.0553C45.0921 15.8583 46.4472 15.0685 45.8402 14.2541C42.9554 10.3826 38.528 7.99434 33.7201 8.00001C28.9103 8.00568 24.4884 10.377 21.6055 14.2541C21.3493 14.5999 21.5591 15.1384 21.8858 15.3406C25.3721 17.4851 29.7066 18.1427 33.7201 18.1427C37.7335 18.1427 42.0718 17.4832 45.5599 15.3406C46.4175 14.8134 45.6341 13.4398 44.7728 13.9707V13.9688Z" fill="black"/>
<path id="Vector_6" d="M44.4889 31.5347C41.9457 34.9433 37.9323 36.999 33.7202 36.999C29.5081 36.999 25.4966 34.9452 22.9515 31.5347L22.6712 32.6212C25.9272 30.6183 29.9722 30.0345 33.7183 30.0345C37.4645 30.0345 41.5095 30.6183 44.7655 32.6212C45.6268 33.1502 46.4121 31.7785 45.5526 31.2513C42.0664 29.1068 37.7318 28.4492 33.7183 28.4492C29.7049 28.4492 25.3703 29.1086 21.8841 31.2513C21.5555 31.4535 21.3458 31.9901 21.6038 32.3377C24.4904 36.2055 28.9104 38.5881 33.7183 38.5881C38.5263 38.5881 42.9463 36.2055 45.8329 32.3377C46.4399 31.5253 45.0866 30.7336 44.487 31.5366L44.4889 31.5347Z" fill="black"/>
</g>
</g>
<path id="Vector_7" d="M19.4727 24.0872C27.7873 24.0872 36.1001 24.0872 44.4147 24.0872H47.9677C48.9702 24.0872 48.972 22.5 47.9677 22.5C39.6531 22.5 31.3404 22.5 23.0258 22.5H19.4727C18.4703 22.5 18.4684 24.0872 19.4727 24.0872Z" fill="black"/>
</g>
</g>
</svg>
