<svg width="50" height="58" viewBox="0 0 50 58" fill="none" xmlns="http://www.w3.org/2000/svg">
<g id="_&#195;&#171;&#195;&#142;&#195;&#147;&#195;&#136;_1" clip-path="url(#clip0_471_7585)">
<g id="Group">
<g id="Group_2">
<g id="Group_3">
<g id="Group_4">
<path id="Vector" d="M17.5312 20.5117H29.2637C30.3675 20.5117 30.3695 18.7949 29.2637 18.7949H17.5312C16.4275 18.7949 16.4254 20.5117 17.5312 20.5117Z" fill="black"/>
<path id="Vector_2" d="M6.79622 20.5539C7.56272 21.2222 8.32717 21.8906 9.09367 22.5569C9.42479 22.845 9.98689 22.9247 10.3078 22.5569C11.6446 21.026 12.9793 19.4952 14.3161 17.9624C15.0396 17.1326 13.8296 15.9145 13.1019 16.7483C11.7652 18.2792 10.4304 19.81 9.09367 21.3428H10.3078C9.5413 20.6745 8.77685 20.0062 8.01035 19.3399C7.18049 18.6164 5.96228 19.8263 6.79622 20.5539Z" fill="black"/>
</g>
<g id="Group_5">
<path id="Vector_3" d="M17.5312 32.0273H29.2637C30.3675 32.0273 30.3695 30.3105 29.2637 30.3105H17.5312C16.4275 30.3105 16.4254 32.0273 17.5312 32.0273Z" fill="black"/>
<path id="Vector_4" d="M6.79622 32.0676C7.56272 32.7359 8.32717 33.4042 9.09367 34.0705C9.42479 34.3587 9.98689 34.4384 10.3078 34.0705C11.6446 32.5397 12.9793 31.0089 14.3161 29.476C15.0396 28.6463 13.8296 27.4281 13.1019 28.262C11.7652 29.7928 10.4304 31.3236 9.09367 32.8565H10.3078C9.5413 32.1882 8.77685 31.5199 8.01035 30.8536C7.18049 30.1301 5.96228 31.34 6.79622 32.0676Z" fill="black"/>
</g>
<g id="Group_6">
<path id="Vector_5" d="M17.5312 43.541H21.6764C22.7802 43.541 22.7822 41.8242 21.6764 41.8242H17.5312C16.4275 41.8242 16.4254 43.541 17.5312 43.541Z" fill="black"/>
<path id="Vector_6" d="M6.79622 43.5813C7.56272 44.2496 8.32717 44.9179 9.09367 45.5842C9.42479 45.8724 9.98689 45.9521 10.3078 45.5842C11.6446 44.0534 12.9793 42.5226 14.3161 40.9897C15.0396 40.1599 13.8296 38.9418 13.1019 39.7757C11.7652 41.3065 10.4304 42.8373 9.09367 44.3702H10.3078C9.5413 43.7019 8.77685 43.0335 8.01035 42.3672C7.18049 41.6437 5.96228 42.8537 6.79622 43.5813Z" fill="black"/>
</g>
</g>
<g id="Group_7">
<path id="Vector_7" d="M36.649 29.0955V13.3868C36.649 12.3976 36.7308 11.3716 36.6306 10.3865C36.322 7.36576 33.0189 7.80109 30.8462 7.80109C29.7424 7.80109 29.7404 9.51789 30.8462 9.51789C32.0807 9.51789 34.7624 8.9681 34.9321 10.7033C35.0322 11.7313 34.9321 12.8186 34.9321 13.8487V29.0955C34.9321 30.1992 36.649 30.2012 36.649 29.0955Z" fill="black"/>
<path id="Vector_8" d="M5.82147 7.80064C4.65026 7.80064 3.25831 7.58809 2.11572 7.90283C0.797348 8.26459 0.0615126 9.45409 0.0185889 10.7683C-0.0243348 12.0824 0.0185889 13.3414 0.0185889 14.6249V32.1874C0.0185889 37.4951 0.0185889 42.8009 0.0185889 48.1086C0.0185889 49.4637 -0.198074 51.0211 0.854579 52.0736C1.62925 52.8482 2.59606 52.9096 3.60579 52.9096H22.852C23.9557 52.9096 23.9578 51.1928 22.852 51.1928H10.4C8.00649 51.1928 5.60276 51.252 3.20925 51.1928C1.68444 51.156 1.73349 50.0278 1.73349 48.8751C1.73349 38.3679 1.73349 27.8627 1.73349 17.3555V11.4223C1.73349 10.9972 1.66604 10.4637 1.88884 10.0815C2.31194 9.35598 3.244 9.51744 3.94918 9.51744H5.81942C6.92318 9.51744 6.92522 7.80064 5.81942 7.80064H5.82147Z" fill="black"/>
<path id="Vector_9" d="M19.2115 5.78109C19.1501 6.90723 17.4557 6.91541 17.4557 5.78109C17.4557 4.64678 19.1501 4.65495 19.2115 5.78109C19.2728 6.90723 20.9877 6.88679 20.9284 5.78109C20.8528 4.377 19.8001 3.1875 18.3346 3.1875C16.869 3.1875 15.7489 4.37495 15.7408 5.78109C15.7326 7.18723 16.8752 8.31337 18.2406 8.3706C19.7429 8.43396 20.8528 7.21994 20.9304 5.78109C20.9897 4.67744 19.2728 4.67948 19.2135 5.78109H19.2115Z" fill="black"/>
<path id="Vector_10" d="M26.9503 4.92354H23.2568L24.1152 5.78194C24.0294 2.63856 21.5459 0 18.3328 0C15.1217 0 12.6383 2.63856 12.5504 5.78194L13.4088 4.92354C12.2192 4.92354 11.0235 4.88266 9.83391 4.92354C7.91665 4.99098 7.14811 6.40734 7.14811 8.14049C7.14811 9.7224 6.90487 11.5884 8.61978 12.408C9.34131 12.7534 10.1936 12.6634 10.9745 12.6634C16.2622 12.6634 21.5889 12.8658 26.8726 12.6634C28.8307 12.5878 29.5195 11.0897 29.5195 9.36065C29.5195 8.62487 29.6013 7.82983 29.4827 7.09815C29.2681 5.79624 28.2155 5.02368 26.9523 4.92149C25.8506 4.83361 25.8567 6.55041 26.9523 6.63829C28.1869 6.73844 27.8639 9.07042 27.8046 9.937C27.7454 10.8036 27.1649 10.9466 26.4474 10.9466H12.3725C11.6101 10.9466 10.8436 10.9691 10.0833 10.9466C9.96677 10.9426 9.83595 10.965 9.72149 10.9466C8.94273 10.824 8.8671 10.2599 8.8671 9.60999C8.8671 8.96006 8.81805 8.29378 8.8671 7.64793C8.92229 6.92442 9.30656 6.66895 9.97699 6.63829C11.1175 6.5872 12.2703 6.63829 13.4109 6.63829C13.8851 6.63829 14.2571 6.24384 14.2694 5.77989C14.3307 3.55827 16.0722 1.72089 18.3348 1.71476C20.5975 1.70862 22.339 3.56849 22.4003 5.77989C22.4126 6.24384 22.7826 6.63829 23.2588 6.63829H26.9523C28.056 6.63829 28.0581 4.92149 26.9523 4.92149L26.9503 4.92354Z" fill="black"/>
</g>
</g>
<path id="Vector_11" d="M44.377 53.0714L42.9074 51.8512C42.611 51.6059 42.2165 51.5099 41.867 51.7163C40.9104 52.2824 39.917 52.6544 38.8276 52.869C38.566 52.9201 38.2675 53.1981 38.2287 53.4679C38.1674 53.8787 38.2144 55.0396 37.9507 55.3257C37.7177 55.5791 36.7938 55.3359 36.4566 55.3073C36.0927 55.2766 35.6553 55.2991 35.3017 55.2092C34.9767 55.1274 35.1975 55.2664 35.13 55.107C34.9501 54.6798 35.1566 53.7703 35.1668 53.2921C35.175 52.8874 34.8888 52.5972 34.5373 52.4644C33.5766 52.1006 32.7079 51.5855 31.923 50.9213C31.6287 50.6719 31.2321 50.584 30.8826 50.7864C30.4779 51.0214 29.7789 51.6407 29.323 51.6877C29.2086 51.7 29.2392 51.7 29.0716 51.4506C28.8631 51.14 28.6547 50.8273 28.4482 50.5166C28.252 50.2243 28.066 49.9239 27.8616 49.6378C27.7492 49.4824 27.6776 49.3843 27.6715 49.4007C27.7901 49.0553 28.7957 48.5382 29.1003 48.3052C29.4048 48.0722 29.6215 47.7268 29.4947 47.3364C29.1514 46.2696 29.0021 45.2109 29.041 44.0929C29.0553 43.6841 28.7589 43.4021 28.4114 43.2652C28.064 43.1282 26.9479 42.9055 26.7354 42.603C26.7231 42.5846 26.7681 42.5294 26.8335 42.3332C26.9459 42 27.0501 41.6628 27.1564 41.3276C27.2709 40.972 27.3935 40.6164 27.4998 40.2587C27.5795 39.991 27.5857 39.9624 27.6654 39.944C28.0721 39.8438 28.9919 40.2792 29.413 40.3834C29.8013 40.4815 30.1672 40.3139 30.3818 39.9889C30.9501 39.1367 31.645 38.3927 32.4687 37.7816C32.7713 37.5568 32.9838 37.2032 32.8632 36.8129C32.7161 36.3346 32.2848 35.56 32.3297 35.0756C32.3481 34.8794 32.1601 35.1022 32.4565 34.9244C32.7712 34.7384 33.2005 34.6423 33.5398 34.5136C33.8525 34.395 34.6762 33.9004 34.9706 34.0701C35.2874 34.252 35.5858 35.4231 35.7493 35.7807C35.8638 36.0321 36.2195 36.2283 36.4913 36.2058C37.5991 36.1159 38.6457 36.1977 39.7228 36.4756C40.1133 36.5778 40.473 36.4021 40.6917 36.0812C40.9595 35.6908 41.2742 34.9305 41.6565 34.6689C41.8711 34.5217 41.6258 34.5749 41.9385 34.7057C42.2819 34.8488 42.6171 35.1063 42.936 35.2964C43.2549 35.4864 43.5655 35.6581 43.8742 35.8523C44.1399 36.0199 44.1133 35.9361 44.1113 36.073C44.1031 36.5104 43.5165 37.2421 43.3121 37.6447C43.1343 37.9962 43.1731 38.3948 43.447 38.685C44.2114 39.4923 44.7879 40.3875 45.2375 41.4012C45.3499 41.6546 45.7076 41.8468 45.9795 41.8263C46.374 41.7977 47.4655 41.5075 47.7905 41.6914C48.1155 41.8754 48.0684 42.6888 48.1236 43.0833C48.1747 43.4532 48.2463 43.8252 48.279 44.1951C48.3239 44.6877 48.3669 44.3974 48.189 44.4914C47.7148 44.7428 46.9381 44.749 46.4087 44.8593C46.1491 44.9125 45.8466 45.1863 45.8098 45.4582C45.6545 46.5537 45.3499 47.5776 44.841 48.5607C44.6591 48.9122 44.704 49.3108 44.9759 49.601L45.816 50.5064C45.8957 50.5922 46.2166 50.8416 46.2329 50.956C46.2329 50.9683 46.1716 50.9744 46.0796 51.1195C45.8936 51.4159 44.424 53.0652 44.2053 52.9324C43.2549 52.3622 42.3903 53.846 43.3387 54.4141C45.0066 55.4136 46.4333 53.3371 47.4021 52.2191C48.7184 50.7005 47.21 49.4865 46.19 48.3869L46.3249 49.4272C46.9034 48.3113 47.2917 47.1586 47.4675 45.9139L46.8686 46.5128C47.6535 46.3513 48.7021 46.3145 49.3562 45.8179C50.3291 45.0801 49.953 43.8517 49.8099 42.8278C49.6668 41.8038 49.7098 40.6614 48.698 40.1524C47.9233 39.7621 46.8094 40.0462 45.9815 40.1075L46.7235 40.5326C46.2146 39.386 45.5257 38.3784 44.6632 37.4689L44.7981 38.5092C45.1599 37.8 45.7914 36.9437 45.8589 36.1323C45.9672 34.8631 44.7102 34.348 43.8067 33.8125C42.9033 33.2771 41.9324 32.4779 40.8797 33.0829C40.15 33.5019 39.6738 34.5401 39.2139 35.2146L40.1827 34.8201C38.9666 34.5054 37.7484 34.3869 36.4954 34.489L37.2374 34.9142C36.896 34.162 36.6139 33.0523 35.8965 32.5679C34.9358 31.92 33.8403 32.574 32.9 32.9296C31.9598 33.2852 30.7763 33.5509 30.6169 34.7323C30.5045 35.5518 30.9766 36.4961 31.2137 37.2666L31.6082 36.2978C30.5372 37.0949 29.646 38.0085 28.9061 39.1203L29.8749 38.7259C29.0737 38.5235 28.0272 38.0596 27.1953 38.2619C26.0404 38.5419 25.8483 39.807 25.5376 40.7738C25.2269 41.7405 24.6934 42.791 25.4211 43.6882C25.9689 44.3647 27.1809 44.612 27.9597 44.9206L27.3302 44.0929C27.2872 45.358 27.4589 46.5884 27.8452 47.7942L28.2397 46.8255C27.5918 47.3221 26.5841 47.8515 26.1876 48.5872C25.603 49.6745 26.4533 50.6106 27.0276 51.4711C27.5652 52.2763 28.0762 53.4065 29.1881 53.4515C30.0793 53.4883 31.0236 52.6933 31.7554 52.2702L30.715 52.1353C31.737 53.0019 32.8346 53.6457 34.0876 54.1198L33.458 53.2921C33.4417 54.0687 33.2659 55.0375 33.5275 55.7835C33.9465 56.973 35.2261 56.9199 36.2624 57.0077C37.2067 57.0874 38.4229 57.4104 39.173 56.6358C39.8067 55.9817 39.7658 54.7677 39.8925 53.9257L39.2936 54.5245C40.5241 54.2833 41.6646 53.8357 42.7439 53.2001L41.7035 53.0652L43.1731 54.2854C44.0173 54.9864 45.2375 53.7785 44.3872 53.0714H44.377Z" fill="black"/>
</g>
<path id="Vector_12" d="M41.4457 44.7081C41.3844 46.8459 39.7083 48.6281 37.5253 48.6281C35.3423 48.6281 33.6111 46.8459 33.605 44.7081C33.5988 42.5702 35.3934 40.788 37.5253 40.788C39.6572 40.788 41.3844 42.5723 41.4457 44.7081C41.4784 45.8097 43.1953 45.8158 43.1626 44.7081C43.0952 42.3597 41.7155 40.2648 39.4896 39.4289C37.276 38.5971 34.6944 39.2899 33.188 41.113C29.8849 45.1087 33.5028 51.1869 38.5821 50.2447C41.2597 49.7481 43.085 47.3752 43.1626 44.7101C43.1953 43.6044 41.4784 43.6065 41.4457 44.7101V44.7081Z" fill="black"/>
</g>
<defs>
<clipPath id="clip0_471_7585">
<rect width="50" height="57.1429" fill="white"/>
</clipPath>
</defs>
</svg>
