<svg width="50" height="55" viewBox="0 0 50 55" fill="none" xmlns="http://www.w3.org/2000/svg">
<g clip-path="url(#clip0_2997_5427)">
<path d="M38.2229 36.9789V40.7196C38.2229 42.182 38.4461 43.8055 37.425 45.0085C36.1133 46.5525 33.7762 46.1843 31.957 46.1843C25.4827 46.1843 19.0083 46.1843 12.5339 46.1843H5.74164C4.84259 46.1843 3.98145 46.1278 3.20874 45.5839C2.17284 44.8579 1.78122 43.7386 1.7749 42.5314C1.75174 37.6672 1.7749 32.803 1.7749 27.9387C1.7749 21.5786 1.7749 15.2164 1.7749 8.85632C1.7749 7.62823 1.73279 6.39178 1.7749 5.16578C1.84017 3.25357 3.29506 1.87485 5.20684 1.82254C5.77322 1.8058 6.34381 1.82254 6.91018 1.82254C13.1572 1.82254 19.4062 1.82254 25.6532 1.82254H33.4919C33.9446 1.82254 34.4015 1.8079 34.8542 1.82254C36.7639 1.8874 38.1661 3.31633 38.2229 5.20553C38.364 9.91913 38.2229 14.6578 38.2229 19.3714C38.2229 25.152 38.2229 30.9326 38.2229 36.7132V25.7488C38.2229 26.8786 39.9916 26.8806 39.9916 25.7488V23.6415C39.9916 17.727 39.9916 11.8125 39.9916 5.90013C39.9916 5.09883 39.9916 4.31428 39.7263 3.54019C39.0083 1.43968 37.0481 0.125815 34.85 0.0630507C33.1487 0.0149315 31.4391 0.0630507 29.7357 0.0630507C22.9034 0.0630507 16.0732 0.0630507 9.24095 0.0630507C7.60289 0.0630507 5.80901 -0.133611 4.18568 0.157197C1.74332 0.594455 0.0715661 2.75354 0.00419057 5.16369C-0.00423137 5.51099 0.00419057 5.86247 0.00419057 6.20976C0.00419057 12.0008 0.00419057 17.7939 0.00419057 23.585C0.00419057 29.376 0.00419057 35.5123 0.00419057 41.477C0.00419057 41.9247 -0.00633685 42.3724 0.00419057 42.8181C0.0568277 44.8684 1.21274 46.7241 3.14136 47.5316C4.79206 48.2241 6.97545 47.9396 8.72511 47.9396C15.5342 47.9396 22.3413 47.9396 29.1504 47.9396C31.0243 47.9396 32.9045 47.9794 34.7784 47.9396C36.6733 47.8999 38.4293 46.9772 39.3557 45.2951C40.1242 43.9018 39.9916 42.3452 39.9916 40.8159V36.9747C39.9916 35.8449 38.2229 35.8429 38.2229 36.9747V36.9789Z" fill="black"/>
<path d="M9.58203 11.1344C15.6542 11.1344 21.7286 11.1344 27.8008 11.1344H30.4137C31.5507 11.1344 31.5528 9.37695 30.4137 9.37695C24.3415 9.37695 18.2672 9.37695 12.1949 9.37695H9.58203C8.44506 9.37695 8.44296 11.1344 9.58203 11.1344Z" fill="black"/>
<path d="M9.58203 20.3004C15.6542 20.3004 21.7286 20.3004 27.8008 20.3004H30.4137C31.5507 20.3004 31.5528 18.543 30.4137 18.543H9.58203C8.44506 18.543 8.44296 20.3004 9.58203 20.3004Z" fill="black"/>
<path d="M9.58203 29.4664H23.3014C24.4383 29.4664 24.4404 27.709 23.3014 27.709H9.58203C8.44506 27.709 8.44296 29.4664 9.58203 29.4664Z" fill="black"/>
<path d="M9.58203 38.6304C15.6542 38.6304 14.7286 38.6304 20.8008 38.6304H23.4137C24.5507 38.6304 24.5528 36.873 23.4137 36.873C17.3415 36.873 18.2672 36.873 12.1949 36.873H9.58203C8.44506 36.873 8.44296 38.6304 9.58203 38.6304Z" fill="black"/>
</g>
<path d="M50 41.5C50 48.9558 44.1797 55 37 55C29.8203 55 24 48.9558 24 41.5C24 34.0442 29.8203 28 37 28C44.1797 28 50 34.0442 50 41.5Z" fill="#F8F9FB"/>
<circle cx="39" cy="40" r="10.25" fill="#F8F9FB" stroke="black" stroke-width="1.5"/>
<path d="M34 39.5432L37.913 43.4004L44 37.4004" stroke="black" stroke-width="1.5" stroke-linecap="round" stroke-linejoin="round"/>
<rect x="23" y="46.2109" width="4" height="1.72" rx="0.86" fill="black"/>
<defs>
<clipPath id="clip0_2997_5427">
<rect width="40" height="48" fill="white"/>
</clipPath>
</defs>
</svg>
