<svg width="16" height="12" viewBox="0 0 16 12" fill="none" xmlns="http://www.w3.org/2000/svg">
<path id="&#239;&#131;&#160;" d="M15.6875 3.96875C15.8125 3.875 16 3.96875 16 4.125V10.5C16 11.3438 15.3125 12 14.5 12H1.5C0.65625 12 0 11.3438 0 10.5V4.125C0 3.96875 0.15625 3.875 0.28125 3.96875C1 4.53125 1.90625 5.21875 5.09375 7.53125C5.75 8 6.875 9.03125 8 9.03125C9.09375 9.03125 10.25 8 10.875 7.53125C14.0625 5.21875 14.9688 4.53125 15.6875 3.96875ZM8 8C7.25 8.03125 6.21875 7.09375 5.6875 6.71875C1.53125 3.71875 1.21875 3.4375 0.28125 2.6875C0.09375 2.5625 0 2.34375 0 2.09375V1.5C0 0.6875 0.65625 0 1.5 0H14.5C15.3125 0 16 0.6875 16 1.5V2.09375C16 2.34375 15.875 2.5625 15.6875 2.6875C14.75 3.4375 14.4375 3.71875 10.2812 6.71875C9.75 7.09375 8.71875 8.03125 8 8Z" fill="#ADB5BD"/>
</svg>
