<svg width="37" height="38" viewBox="0 0 37 38" fill="none" xmlns="http://www.w3.org/2000/svg">
<g clip-path="url(#clip0_471_7783)">
<path d="M30.6539 31.8587H6.96371C5.94004 31.7945 5.88571 31.4961 5.88571 31.1714C5.88571 30.8468 6.64422 30.683 6.96371 30.683H30.6533C32.9632 30.683 34.8424 28.7735 34.8424 26.4262V8.4324C34.8424 6.08515 32.9632 4.17561 30.6533 4.17561H7.34609C5.03613 4.17561 3.15693 6.08515 3.15693 8.4324V26.4262C3.15693 28.5077 4.68085 30.3161 6.70126 30.6328C7.27463 30.7227 7.23352 30.9826 7.18472 31.3032C7.13592 31.6239 6.8405 31.8448 6.52492 31.7945C3.94557 31.3905 2 29.0823 2 26.4262V8.4324C2 5.43718 4.39845 3 7.34609 3H30.6539C33.6015 3 36 5.43718 36 8.4324V26.4262C36 29.4215 33.6015 31.8587 30.6539 31.8587Z" fill="black" stroke="black" stroke-width="0.75"/>
<path d="M18.9999 35.2426C18.6804 35.2426 18.4214 34.9794 18.4214 34.6547V31.2714C18.4214 30.9468 18.6804 30.6836 18.9999 30.6836C19.3193 30.6836 19.5783 30.9468 19.5783 31.2714V34.6547C19.5783 34.9794 19.3193 35.2426 18.9999 35.2426Z" fill="black" stroke="black" stroke-width="0.75"/>
<path d="M28.0237 37.9713C27.9228 37.9713 27.8213 37.9448 27.7283 37.8886C21.8551 34.3353 16.1447 34.3353 10.2722 37.8886C9.99691 38.0546 9.64228 37.9633 9.47896 37.6843C9.31563 37.4053 9.40543 37.0443 9.68002 36.8783C15.8649 33.1372 22.1356 33.1366 28.3204 36.8783C28.595 37.0443 28.6848 37.4053 28.5215 37.6843C28.4135 37.8688 28.2209 37.9713 28.0237 37.9713Z" fill="black" stroke="black" stroke-width="0.75"/>
<path d="M26.4434 26.2036H11.4404C8.79665 26.2036 6.62269 24.1731 6.49125 21.5812C6.37802 19.3503 7.78222 17.3336 9.8267 16.6731C9.81498 16.5395 9.80978 16.4053 9.80978 16.2711C9.80978 14.2578 11.0793 12.5023 12.9695 11.9032C13.8311 11.6302 14.7765 11.6288 15.6315 11.896C16.9108 9.68821 19.3008 8.43855 21.8593 8.68253C24.9501 8.97743 27.4696 11.5733 27.7188 14.7199C27.7617 15.2581 27.7416 15.7937 27.6589 16.318C28.7118 16.5515 29.6559 17.1307 30.3645 17.9876C31.2137 19.0157 31.6145 20.3229 31.4941 21.6691C31.2664 24.2114 29.0482 26.203 26.4441 26.203L26.4434 26.2036ZM13.3144 13.0259C11.9102 13.4709 10.9667 14.7755 10.9667 16.2718C10.9667 16.5131 10.9921 16.7544 11.0415 16.9892C11.0741 17.1439 11.0435 17.3052 10.9576 17.4368C10.8717 17.5684 10.737 17.6596 10.5848 17.6894C8.81682 18.0345 7.55383 19.6816 7.64688 21.521C7.74513 23.455 9.44669 25.028 11.4404 25.028H26.4434C28.4547 25.028 30.1674 23.5059 30.3411 21.5627C30.4335 20.5312 30.127 19.5301 29.4776 18.744C28.8282 17.9572 27.9192 17.4771 26.9184 17.3918C26.748 17.3773 26.5924 17.2874 26.4942 17.1452C26.3953 17.003 26.3634 16.8245 26.407 16.6566C26.5612 16.0602 26.6146 15.4406 26.5651 14.8145C26.3601 12.2285 24.2903 10.0955 21.7506 9.85351C19.5018 9.63929 17.4079 10.8281 16.4221 12.8831C16.2861 13.1674 15.9523 13.2917 15.6673 13.1628C14.9314 12.8309 14.0803 12.7826 13.3138 13.0259H13.3144Z" fill="black" stroke="black" stroke-width="0.75"/>
</g>
<defs>
<clipPath id="clip0_471_7783">
<rect width="37" height="38" fill="white"/>
</clipPath>
</defs>
</svg>
