<svg width="65" height="65" viewBox="0 0 65 65" fill="none" xmlns="http://www.w3.org/2000/svg">
<g clip-path="url(#clip0_471_6349)">
<path d="M11.6166 58.3429H5.04082C2.27405 58.3429 0.0189514 56.0996 0.0189514 53.3473V31.5738C0.0189514 28.8215 2.27405 26.5781 5.04082 26.5781H11.6166C14.3834 26.5781 16.6385 28.8215 16.6385 31.5738V53.3473C16.6385 56.0996 14.3834 58.3429 11.6166 58.3429ZM5.02187 29.0854C3.63848 29.0854 2.50146 30.1976 2.50146 31.5926V53.3661C2.50146 54.7423 3.61953 55.8734 5.02187 55.8734H11.5977C12.981 55.8734 14.1181 54.7611 14.1181 53.3661V31.5926C14.1181 30.2165 13 29.0854 11.5977 29.0854H5.02187Z" fill="#ADB5BD"/>
<path d="M35.7974 58.3451H29.2216C26.4548 58.3451 24.1997 56.1018 24.1997 53.3495V17.6636C24.1997 14.9113 26.4548 12.668 29.2216 12.668H35.7974C38.5641 12.668 40.8192 14.9113 40.8192 17.6636V53.3495C40.8192 56.1018 38.5641 58.3451 35.7974 58.3451ZM29.2216 15.1752C27.8382 15.1752 26.7012 16.2875 26.7012 17.6825V53.3683C26.7012 54.7445 27.8192 55.8756 29.2216 55.8756H35.7974C37.1808 55.8756 38.3178 54.7634 38.3178 53.3683V17.6636C38.3178 16.2875 37.1997 15.1564 35.7974 15.1564H29.2216V15.1752Z" fill="#ADB5BD"/>
<path d="M59.9782 58.3454H53.4024C50.6356 58.3454 48.3805 56.1021 48.3805 53.3498V4.99565C48.3805 2.24333 50.6356 0 53.4024 0H59.9782C62.7449 0 65 2.24333 65 4.99565V53.3498C65 56.1021 62.7449 58.3454 59.9782 58.3454ZM53.4024 2.50725C52.019 2.50725 50.882 3.61949 50.882 5.0145V53.3686C50.882 54.7448 52 55.8759 53.4024 55.8759H59.9782C61.3615 55.8759 62.4986 54.7636 62.4986 53.3686V4.99565C62.4986 3.61949 61.3805 2.4884 59.9782 2.4884H53.4024V2.50725Z" fill="#ADB5BD"/>
<path d="M63.7493 65.0001H1.25073C0.549563 65.0001 0 64.4346 0 63.7559C0 63.0773 0.568513 62.5117 1.25073 62.5117H63.7493C64.4504 62.5117 65 63.0773 65 63.7559C65 64.4346 64.4315 65.0001 63.7493 65.0001Z" fill="#ADB5BD"/>
</g>
<defs>
<clipPath id="clip0_471_6349">
<rect width="65" height="65" fill="white"/>
</clipPath>
</defs>
</svg>
