<svg width="53" height="72" viewBox="0 0 53 72" fill="none" xmlns="http://www.w3.org/2000/svg">
<g clip-path="url(#clip0_471_6329)">
<path d="M1.36908 72C1.22387 72 1.07867 71.9791 0.933464 71.9374C0.373385 71.7494 0 71.2274 0 70.6218V26.6659C0 11.9652 11.8861 0 26.4896 0C41.0932 0 52.9793 11.9652 52.9793 26.6659C52.9793 41.3666 41.0932 53.3318 26.4896 53.3318C23.2744 53.3318 20.1421 52.768 17.155 51.6404L2.46849 71.4362C2.19883 71.7912 1.78395 72 1.36908 72ZM26.4896 2.77726C13.4004 2.77726 2.7589 13.4896 2.7589 26.6659V66.4246L15.5992 49.1137C15.9726 48.5917 16.6571 48.4246 17.238 48.6752C20.1628 49.9281 23.2744 50.5545 26.4896 50.5545C39.5789 50.5545 50.2411 39.8214 50.2411 26.645C50.2411 13.4687 39.5996 2.77726 26.4896 2.77726Z" fill="#ADB5BD"/>
</g>
<defs>
<clipPath id="clip0_471_6329">
<rect width="53" height="72" fill="white"/>
</clipPath>
</defs>
</svg>
