<svg width="62" height="70" viewBox="0 0 62 70" fill="none" xmlns="http://www.w3.org/2000/svg">
<g clip-path="url(#clip0_471_6360)">
<path d="M30.9895 70C22.5627 70 17.9911 51.9668 17.9911 34.9894C17.9911 18.0121 22.5627 0 30.9895 0C39.4162 0 43.9878 18.0332 43.9878 34.9894C43.9878 51.9457 39.4373 70 30.9895 70ZM30.9895 2.80845C26.1651 2.80845 20.7931 16.0271 20.7931 35.0106C20.7931 53.994 26.1651 67.2127 30.9895 67.2127C35.8138 67.2127 41.1858 53.994 41.1858 35.0106C41.1858 16.0271 35.8138 2.80845 30.9895 2.80845Z" fill="#ADB5BD"/>
<path d="M9.01664 56.0207C5.14032 56.0207 2.19095 54.9649 0.758398 52.4943C-1.11656 49.2424 0.505594 44.4068 5.30886 38.8321C9.79611 33.6376 16.6007 28.2741 24.5008 23.713C39.1634 15.2243 57.0282 10.1775 61.2416 17.4837C63.1165 20.7356 61.4944 25.5712 56.6911 31.1459C52.2039 36.3404 45.3992 41.7039 37.4991 46.265C27.7662 51.8819 16.6429 56.0207 9.01664 56.0207ZM52.9833 16.808C46.8739 16.808 36.9093 19.7854 25.9123 26.1413C18.2861 30.5546 11.7343 35.7069 7.43662 40.6692C3.58137 45.1247 2.00135 49.0101 3.1811 51.0795C5.58273 55.2605 19.6976 53.3178 36.1087 43.8367C43.735 39.4234 50.2868 34.271 54.5844 29.3088C58.4397 24.8532 60.0197 20.9679 58.84 18.8985C58.0394 17.5259 55.9959 16.808 53.0044 16.808H52.9833Z" fill="#ADB5BD"/>
<path d="M52.9833 56.0207C45.3571 56.0207 34.2338 51.903 24.5008 46.265C16.6218 41.7039 9.79611 36.3404 5.30886 31.1458C0.505594 25.5923 -1.11656 20.7356 0.758398 17.5048C4.97179 10.1775 22.8365 15.2454 37.4991 23.7341C45.3782 28.2952 52.2039 33.6587 56.6911 38.8532C61.4944 44.4068 63.1165 49.2635 61.2416 52.5154C59.8301 54.986 56.8597 56.0418 52.9833 56.0418V56.0207ZM9.01664 16.808C6.02513 16.808 3.96057 17.5259 3.1811 18.8985C1.98028 20.9679 3.58137 24.8532 7.43662 29.3087C11.7343 34.271 18.2861 39.4234 25.9123 43.8366C42.3024 53.3178 56.4173 55.2816 58.84 51.0795C60.0408 49.0101 58.4397 45.1247 54.5844 40.6692C50.2868 35.7069 43.735 30.5546 36.1087 26.1413C25.1118 19.7642 15.1261 16.808 9.03771 16.808H9.01664Z" fill="#ADB5BD"/>
<path d="M30.9895 40.9039C27.7452 40.9039 25.1118 38.2644 25.1118 35.0125C25.1118 31.7606 27.7452 29.1211 30.9895 29.1211C34.2338 29.1211 36.8671 31.7606 36.8671 35.0125C36.8671 38.2644 34.2338 40.9039 30.9895 40.9039ZM30.9895 31.9084C29.283 31.9084 27.9137 33.3021 27.9137 34.9914C27.9137 36.6807 29.3041 38.0743 30.9895 38.0743C32.6748 38.0743 34.0652 36.6807 34.0652 34.9914C34.0652 33.3021 32.6748 31.9084 30.9895 31.9084Z" fill="#ADB5BD"/>
</g>
<defs>
<clipPath id="clip0_471_6360">
<rect width="62" height="70" fill="white"/>
</clipPath>
</defs>
</svg>
