<svg width="50" height="63" viewBox="0 0 50 63" fill="none" xmlns="http://www.w3.org/2000/svg">
<g clip-path="url(#clip0_471_6337)">
<path d="M11.5357 42.5167C5.16307 42.5167 0 37.3355 0 30.981C0 24.6264 5.18113 19.4453 11.5357 19.4453C17.8902 19.4453 23.0714 24.6264 23.0714 30.981C23.0714 37.3355 17.8902 42.5167 11.5357 42.5167ZM11.5357 21.8102C6.49897 21.8102 2.38296 25.9082 2.38296 30.9629C2.38296 36.0177 6.48092 40.1157 11.5357 40.1157C16.5904 40.1157 20.6884 36.0177 20.6884 30.9629C20.6884 25.9082 16.5904 21.8102 11.5357 21.8102Z" fill="#ADB5BD"/>
<path d="M40.8894 62.2465C36.2318 62.2465 32.4587 58.4554 32.4587 53.8159C32.4587 49.1763 36.2498 45.3672 40.8894 45.3672C45.5289 45.3672 49.32 49.1583 49.32 53.8159C49.32 58.4734 45.5289 62.2465 40.8894 62.2465ZM40.8894 47.7501C37.5496 47.7501 34.8417 50.458 34.8417 53.7978C34.8417 57.1375 37.5496 59.8455 40.8894 59.8455C44.2291 59.8455 46.937 57.1375 46.937 53.7978C46.937 50.458 44.2291 47.7501 40.8894 47.7501Z" fill="#ADB5BD"/>
<path d="M40.8894 16.8793C36.2318 16.8793 32.4587 13.0882 32.4587 8.43061C32.4587 3.77302 36.2318 0 40.8894 0C45.547 0 49.32 3.79107 49.32 8.44867C49.32 13.1063 45.5289 16.8973 40.8894 16.8973V16.8793ZM40.8894 2.40101C37.5496 2.40101 34.8417 5.10892 34.8417 8.44867C34.8417 11.7884 37.5496 14.4963 40.8894 14.4963C44.2291 14.4963 46.937 11.7884 46.937 8.44867C46.937 5.10892 44.2291 2.40101 40.8894 2.40101Z" fill="#ADB5BD"/>
<path d="M18.8651 24.8407C18.4499 24.8407 18.0527 24.6241 17.8361 24.263C17.4931 23.7034 17.6736 22.9632 18.2513 22.6202L35.1487 12.5287C35.7083 12.1857 36.4484 12.3663 36.7914 12.944C37.1344 13.5036 36.9539 14.2437 36.3762 14.5868L19.4789 24.6782C19.2803 24.7865 19.0818 24.8407 18.8651 24.8407Z" fill="#ADB5BD"/>
<path d="M35.7624 49.571C35.5457 49.571 35.3472 49.5168 35.1486 49.4085L18.2512 39.317C17.6916 38.974 17.493 38.2519 17.836 37.6742C18.179 37.1146 18.9011 36.916 19.4788 37.259L36.3762 47.3505C36.9358 47.6935 37.1344 48.4156 36.7914 48.9933C36.5747 49.3724 36.1776 49.571 35.7624 49.571Z" fill="#ADB5BD"/>
</g>
<defs>
<clipPath id="clip0_471_6337">
<rect width="49.32" height="62.2457" fill="white"/>
</clipPath>
</defs>
</svg>
